<svg xmlns="http://www.w3.org/2000/svg" viewBox="0 0 475.57 465.8"><defs><style>.cls-1{fill:#ffca8a;}.cls-2{fill:#ffd8a9;}.cls-3{fill:#e0e0e0;}.cls-4{fill:#ff8c00;}.cls-5{fill:#005a7a;}.cls-11,.cls-6{fill:#fff;}.cls-6{opacity:0.85;}.cls-7{opacity:0.3;}.cls-8{fill:#17331d;}.cls-23,.cls-27,.cls-9{opacity:0.15;}.cls-10{fill:#0d83b7;}.cls-12{fill:#ffbda7;}.cls-13{fill:#263238;}.cls-14{fill:#f0997a;}.cls-15{fill:#37474f;}.cls-16{fill:#b16668;}.cls-17{fill:#f28f8f;}.cls-18{fill:#455a64;}.cls-19{fill:#fafafa;}.cls-20{fill:#c8856a;}.cls-21{fill:#af6152;}.cls-22,.cls-23{fill:#f4bc7d;}.cls-24{opacity:0.05;}.cls-25{fill:#ba68c8;}.cls-26{fill:#ffa8a7;}.cls-28,.cls-31{fill:#d67000;}.cls-28,.cls-29{opacity:0.4;}.cls-29{fill:#602700;}.cls-30{opacity:0.2;}.cls-32{fill:#dd882f;}.cls-33{fill:#9a4a4d;}</style></defs><g id="Layer_2" data-name="Layer 2"><g id="Icons"><g id="Icons-2" data-name="Icons"><path class="cls-1" d="M33.4,136.09A17.13,17.13,0,1,1,50.53,119,17.16,17.16,0,0,1,33.4,136.09Zm0-33.51A16.38,16.38,0,1,0,49.78,119,16.4,16.4,0,0,0,33.4,102.58Z"/><path id="Musical_note" data-name="Musical note" class="cls-1" d="M28.88,109.83,26.61,120.4a2.8,2.8,0,0,0-.89-.37,2.83,2.83,0,1,0,2.17,3.36l2.05-9.47L40,113.46h0l-2,9.39a2.8,2.8,0,0,0-.89-.37,2.83,2.83,0,1,0,2.17,3.36h0l3.36-15.68Z"/><path class="cls-1" d="M382.78,156.75a10.94,10.94,0,1,1,10.93-10.93A10.94,10.94,0,0,1,382.78,156.75Zm0-21.12A10.19,10.19,0,1,0,393,145.82,10.19,10.19,0,0,0,382.78,135.63Z"/><path id="Pin" class="cls-1" d="M382.78,138.77a5,5,0,0,0-5,4.95c0,4.7,5,9.15,5,9.15s5-4.45,5-9.15A5,5,0,0,0,382.78,138.77Zm0,7a2.4,2.4,0,1,1,2.4-2.4A2.4,2.4,0,0,1,382.78,145.82Z"/><path class="cls-1" d="M181.16,411.74a19,19,0,1,1,19-19A19,19,0,0,1,181.16,411.74Zm0-37.24a18.25,18.25,0,1,0,18.24,18.24A18.27,18.27,0,0,0,181.16,374.5Z"/><path class="cls-1" d="M191.79,384H170.52a1.61,1.61,0,0,0-1.61,1.62v13a1.61,1.61,0,0,0,1.61,1.62h7.92l2.11,4.21a.68.68,0,0,0,1.22,0l2.1-4.21h7.92a1.61,1.61,0,0,0,1.62-1.62v-13A1.61,1.61,0,0,0,191.79,384Zm-8.94,12.49-1.69,1.08-1.69-1.08c-1.25-.8-4.58-2.92-4.58-6.22a3.15,3.15,0,0,1,6.27-.4,3.15,3.15,0,0,1,6.27.4C187.43,393.55,184.1,395.67,182.85,396.47Z"/><path class="cls-1" d="M237.58,79.09A17.43,17.43,0,1,1,255,61.66,17.44,17.44,0,0,1,237.58,79.09Zm0-34.1a16.68,16.68,0,1,0,16.67,16.67A16.68,16.68,0,0,0,237.58,45Z"/><path class="cls-1" d="M243.65,62.11H231.5a3.33,3.33,0,0,0-3.29,2.82l-.82,5.26c3.09,7,17.29,7,20.37,0L247,64.93A3.34,3.34,0,0,0,243.65,62.11Z"/><circle class="cls-1" cx="237.58" cy="54.22" r="5.78"/><path class="cls-1" d="M452.89,133.17a19.23,19.23,0,1,1,19.23-19.23A19.26,19.26,0,0,1,452.89,133.17Zm0-37.71a18.48,18.48,0,1,0,18.48,18.48A18.5,18.5,0,0,0,452.89,95.46Z"/><path class="cls-1" d="M468.18,117.07a3.52,3.52,0,0,1-3.52,3.52h-9.58v-4h2.7l-4.89-5.92L448,116.56h2.69v4h-9.57a3.52,3.52,0,1,1,0-7h1.05v-.62a5.74,5.74,0,0,1,5.72-5.73,5.6,5.6,0,0,1,3.15,1,6.41,6.41,0,0,1,12.54,1.89v3.5h1.07A3.52,3.52,0,0,1,468.18,117.07Z"/><path class="cls-1" d="M281.28,411.86a13.41,13.41,0,1,1,13.41-13.41A13.42,13.42,0,0,1,281.28,411.86Zm0-26.07a12.66,12.66,0,1,0,12.66,12.66A12.68,12.68,0,0,0,281.28,385.79Z"/><path class="cls-1" d="M282.42,407.3H280a.85.85,0,0,1-.62-.26.88.88,0,0,1-.26-.63v-1.1a6.74,6.74,0,0,1-1.43-.55,6.4,6.4,0,0,1-1.33-.93,4.39,4.39,0,0,1-.88-1.17,3.31,3.31,0,0,1-.34-1.31.75.75,0,0,1,.24-.57.71.71,0,0,1,.54-.24h2.46a1.53,1.53,0,0,1,.57.1,1.76,1.76,0,0,1,.39.26,2.49,2.49,0,0,1,.26.28,2.67,2.67,0,0,0,.34.29,2.17,2.17,0,0,0,.55.26,2.73,2.73,0,0,0,.83.11,4.9,4.9,0,0,0,1.55-.2c.41-.13.41-.32.41-.42s0-.1-.1-.17a2,2,0,0,0-.62-.29,11.84,11.84,0,0,0-1.21-.3l-1.81-.38a5.59,5.59,0,0,1-3-1.5,4.07,4.07,0,0,1-1-2.84,3.8,3.8,0,0,1,.27-1.41,4.13,4.13,0,0,1,.78-1.23,4.72,4.72,0,0,1,1.22-1,6.38,6.38,0,0,1,1.33-.54v-1.11a.89.89,0,0,1,.88-.88h2.47a.89.89,0,0,1,.88.88v1.13a5.89,5.89,0,0,1,1.34.55,6.11,6.11,0,0,1,1.26.92,5,5,0,0,1,.84,1.1,2.72,2.72,0,0,1,.34,1.18.78.78,0,0,1-.23.57.76.76,0,0,1-.54.23h-2.46a1.3,1.3,0,0,1-.59-.11,1.61,1.61,0,0,1-.42-.28c0-.06-.12-.12-.2-.22a1.39,1.39,0,0,0-.27-.2,2.16,2.16,0,0,0-.48-.21,3.52,3.52,0,0,0-1.35,0,2.16,2.16,0,0,0-.5.12.77.77,0,0,0-.27.19.34.34,0,0,0-.07.23.26.26,0,0,0,.08.21,1.45,1.45,0,0,0,.46.26,7.49,7.49,0,0,0,1.07.29l1.73.36a9.23,9.23,0,0,1,1.87.55,4.56,4.56,0,0,1,1.4.87,3.36,3.36,0,0,1,.87,1.27,4.67,4.67,0,0,1,.28,1.67,3.74,3.74,0,0,1-.34,1.6,4,4,0,0,1-.93,1.29,5.09,5.09,0,0,1-1.42.91,7.42,7.42,0,0,1-1.47.46v1a.88.88,0,0,1-.26.63A.89.89,0,0,1,282.42,407.3Zm-6.55-6a2.08,2.08,0,0,0,.24,1,3.4,3.4,0,0,0,.72,1,5.44,5.44,0,0,0,1.16.82,6.22,6.22,0,0,0,1.54.56l.29.06v1.69a.11.11,0,0,0,0,.1.12.12,0,0,0,.09,0h2.47s.05,0,.09-.05a.11.11,0,0,0,0-.09v-1.65l.31-.05a7.18,7.18,0,0,0,1.61-.46,4.35,4.35,0,0,0,1.21-.78,3.36,3.36,0,0,0,.76-1.05,3,3,0,0,0,.27-1.29,3.83,3.83,0,0,0-.23-1.4,2.59,2.59,0,0,0-.68-1,3.82,3.82,0,0,0-1.18-.73,10,10,0,0,0-1.73-.51c-.7-.13-1.27-.25-1.74-.36a8.5,8.5,0,0,1-1.17-.32,2,2,0,0,1-.74-.44,1,1,0,0,1-.29-.73,1.08,1.08,0,0,1,.25-.71,1.41,1.41,0,0,1,.56-.4,3.11,3.11,0,0,1,.67-.18,4.63,4.63,0,0,1,1.68.07,2.63,2.63,0,0,1,.65.29,1.57,1.57,0,0,1,.43.34l.17.17a1,1,0,0,0,.22.15.54.54,0,0,0,.27,0h2.46a1.67,1.67,0,0,0-.23-.87,3.73,3.73,0,0,0-.71-.92,5,5,0,0,0-1.1-.81,5.82,5.82,0,0,0-1.43-.55l-.29-.07v-1.71a.12.12,0,0,0,0-.09.14.14,0,0,0-.09,0H280a.12.12,0,0,0-.09,0,.09.09,0,0,0,0,.09v1.69l-.29.07a5.67,5.67,0,0,0-1.42.54,4.31,4.31,0,0,0-1,.81,3.71,3.71,0,0,0-.63,1,3.11,3.11,0,0,0-.22,1.13,3.28,3.28,0,0,0,.8,2.34,4.91,4.91,0,0,0,2.63,1.27l1.79.37c.52.11,1,.21,1.3.32a3.21,3.21,0,0,1,.85.41,1,1,0,0,1,.39.77,1.17,1.17,0,0,1-.93,1.14,6.06,6.06,0,0,1-1.78.23,3.32,3.32,0,0,1-1.07-.15,2.83,2.83,0,0,1-.74-.36,3.26,3.26,0,0,1-.47-.4l-.21-.24a.86.86,0,0,0-.19-.11.59.59,0,0,0-.26,0Z"/><path class="cls-1" d="M397,322.16a13.95,13.95,0,1,1,13.95-14A14,14,0,0,1,397,322.16ZM397,295a13.2,13.2,0,1,0,13.2,13.2A13.21,13.21,0,0,0,397,295Z"/><path class="cls-1" d="M403.13,307.11l-8.82-4.72a1.25,1.25,0,0,0-1.83,1.1v9.44a1.25,1.25,0,0,0,1.83,1.1l8.82-4.72A1.25,1.25,0,0,0,403.13,307.11Z"/><path class="cls-1" d="M26.27,331.31A10.83,10.83,0,1,1,37.1,320.49,10.83,10.83,0,0,1,26.27,331.31Zm0-20.9a10.08,10.08,0,1,0,10.08,10.08A10.09,10.09,0,0,0,26.27,310.41Z"/><path class="cls-1" d="M33.14,318.63a.18.18,0,0,0,.08-.2,7.29,7.29,0,0,0-.45-1.14,6.59,6.59,0,0,0-.63-1.06.19.19,0,0,0-.21-.05l-1.08.54a5.92,5.92,0,0,0-1.43-1.26l.39-1.14a.16.16,0,0,0-.07-.2,7.39,7.39,0,0,0-2.33-.79.17.17,0,0,0-.18.11l-.39,1.14a5.77,5.77,0,0,0-1.89.13l-.53-1.09a.18.18,0,0,0-.2-.08,6.14,6.14,0,0,0-1.14.45,6.59,6.59,0,0,0-1.06.63.19.19,0,0,0-.05.21l.54,1.08a5.52,5.52,0,0,0-1.26,1.43L20.11,317a.17.17,0,0,0-.2.07,7.39,7.39,0,0,0-.79,2.33.16.16,0,0,0,.11.18l1.14.39a6,6,0,0,0,.12,1.89l-1.08.53a.16.16,0,0,0-.08.2,6.88,6.88,0,0,0,.44,1.14,7.46,7.46,0,0,0,.64,1.06.16.16,0,0,0,.21.05l1.08-.53a5.67,5.67,0,0,0,1.43,1.25l-.39,1.14a.16.16,0,0,0,.07.2,7.14,7.14,0,0,0,2.33.79.17.17,0,0,0,.18-.11l.38-1.14a6.09,6.09,0,0,0,1.9-.12l.53,1.08a.18.18,0,0,0,.2.09,7.94,7.94,0,0,0,1.14-.45,7.46,7.46,0,0,0,1.06-.64.17.17,0,0,0,0-.2L30,325.06a5.85,5.85,0,0,0,1.26-1.42l1.14.38a.16.16,0,0,0,.2-.07,7.3,7.3,0,0,0,.79-2.33.18.18,0,0,0-.11-.18l-1.14-.38a5.81,5.81,0,0,0-.13-1.9Zm-4.51,4.31a3.41,3.41,0,0,1-5.74-2.09,3.27,3.27,0,0,1,1-2.82,3.41,3.41,0,0,1,5.74,2.09A3.29,3.29,0,0,1,28.63,322.94Z"/><path class="cls-1" d="M189.09,24.45a12.23,12.23,0,1,1,12.23-12.23A12.24,12.24,0,0,1,189.09,24.45Zm0-23.7a11.48,11.48,0,1,0,11.48,11.47A11.49,11.49,0,0,0,189.09.75Z"/><g id="Like"><path class="cls-1" d="M186,10.89s1.25-3,1.34-3.5a13.77,13.77,0,0,0-.56-2.66c-.07-.34,1.54-.81,2.31.33a5.18,5.18,0,0,1,1,3.38l4-.82a1.24,1.24,0,0,1,1.44,1,1.39,1.39,0,0,1-.4,1.29,1.13,1.13,0,0,1,1,.95,1.26,1.26,0,0,1-.72,1.4,1.58,1.58,0,0,1,.46.89,1.39,1.39,0,0,1-.88,1.39,2.33,2.33,0,0,1,.36.87,1.39,1.39,0,0,1-1.2,1.54l-6.56,1.37Z"/><rect class="cls-1" x="182.98" y="11.08" width="2.92" height="8.82" transform="translate(0.7 37.82) rotate(-11.73)"/></g><path class="cls-1" d="M75.93,295.17A16.13,16.13,0,1,1,92.06,279,16.15,16.15,0,0,1,75.93,295.17Zm0-31.51A15.38,15.38,0,1,0,91.31,279,15.4,15.4,0,0,0,75.93,263.66Z"/><polygon class="cls-1" points="86.09 272.38 65.76 272.38 75.94 279.45 86.09 272.38"/><polygon class="cls-1" points="87.26 284.76 87.26 273.35 80.44 278.19 79.18 279.09 75.94 281.39 72.62 279.04 65.82 285.7 86.03 285.7 79.38 279.27 80.62 278.35 87.26 284.76"/><polygon class="cls-1" points="71.36 278.14 64.6 273.35 64.6 284.78 71.25 278.35 72.43 279.23 72.62 279.04 71.36 278.14 71.36 278.14"/><path class="cls-1" d="M456,323.31a10.62,10.62,0,1,1,10.62-10.62A10.63,10.63,0,0,1,456,323.31Zm0-20.48a9.87,9.87,0,1,0,9.87,9.86A9.88,9.88,0,0,0,456,302.83Z"/><path class="cls-1" d="M458.21,316.37a2.2,2.2,0,1,1-2.2-2.19A2.19,2.19,0,0,1,458.21,316.37Z"/><path class="cls-1" d="M456,310.58a5.78,5.78,0,0,0-5.11,3.07.85.85,0,0,0,.23,1.08h0a.86.86,0,0,0,1.28-.27,4.07,4.07,0,0,1,7.2,0,.84.84,0,0,0,1.28.27h0a.85.85,0,0,0,.23-1.08A5.77,5.77,0,0,0,456,310.58Z"/><path class="cls-1" d="M456,307.06a9.32,9.32,0,0,0-7.85,4.31.89.89,0,0,0,.18,1.17h0a.86.86,0,0,0,1.26-.22,7.58,7.58,0,0,1,12.81,0,.86.86,0,0,0,1.26.22h0a.88.88,0,0,0,.18-1.16A9.29,9.29,0,0,0,456,307.06Z"/><path class="cls-1" d="M237.58,465.8a10.94,10.94,0,1,1,10.94-10.94A11,11,0,0,1,237.58,465.8Zm0-21.13a10.19,10.19,0,1,0,10.19,10.19A10.21,10.21,0,0,0,237.58,444.67Z"/><polygon class="cls-1" points="237.58 447.65 239.69 451.94 244.43 452.63 241 455.97 241.81 460.69 237.58 458.46 233.34 460.69 234.15 455.97 230.73 452.63 235.46 451.94 237.58 447.65"/><rect class="cls-2" x="128.62" y="30.45" width="53.44" height="0.75" transform="translate(5.56 82.26) rotate(-30.18)"/><rect class="cls-2" x="212.02" y="13.52" width="0.75" height="40.86" transform="translate(28.01 144.71) rotate(-40.07)"/><rect class="cls-2" x="254.45" y="58.09" width="59.38" height="0.75" transform="translate(-4.62 30.66) rotate(-6.13)"/><rect class="cls-2" x="33.03" y="135.66" width="0.75" height="38.13" transform="translate(-7.5 1.81) rotate(-2.79)"/><polygon class="cls-2" points="377.47 136.62 365.13 100.9 365.84 100.66 378.18 136.37 377.47 136.62"/><rect class="cls-2" x="416.75" y="168.52" width="73.56" height="0.75" transform="translate(240.52 603.46) rotate(-84.31)"/><rect class="cls-2" x="409.73" y="63.49" width="0.75" height="58.19" transform="translate(125.06 401.63) rotate(-60.03)"/><polygon class="cls-2" points="393.48 144.56 393.2 143.86 438.49 125.91 438.76 126.61 393.48 144.56"/><polygon class="cls-2" points="405.96 298 405.35 297.55 422.02 274.74 422.63 275.18 405.96 298"/><polygon class="cls-2" points="411.41 359.23 410.88 358.7 449.43 320.48 449.96 321.01 411.41 359.23"/><polygon class="cls-2" points="228.32 448.79 193.12 407 193.7 406.52 228.89 448.31 228.32 448.79"/><rect class="cls-2" x="235.87" y="428.51" width="48.22" height="0.75" transform="translate(-240.25 392.8) rotate(-54.65)"/><rect class="cls-2" x="293.79" y="392.37" width="62.82" height="0.75" transform="translate(-66.07 65.77) rotate(-10.49)"/><rect class="cls-2" x="24.06" y="244.83" width="0.75" height="65.29" transform="translate(-5.2 0.51) rotate(-1.08)"/><rect class="cls-2" x="83.56" y="294.29" width="0.75" height="65.2" transform="translate(-56.57 20.03) rotate(-10.2)"/><rect class="cls-2" x="41.68" y="97.3" width="33.16" height="0.75" transform="translate(-40.68 41.59) rotate(-29.64)"/><path class="cls-3" d="M393.17,430.55A38.78,38.78,0,1,1,432,391.78,38.81,38.81,0,0,1,393.17,430.55Zm0-76.8a38,38,0,1,0,38,38A38.07,38.07,0,0,0,393.17,353.75Z"/><path class="cls-3" d="M79.24,433.1A38.78,38.78,0,1,1,118,394.32,38.83,38.83,0,0,1,79.24,433.1Zm0-76.81a38,38,0,1,0,38,38A38.07,38.07,0,0,0,79.24,356.29Z"/><path class="cls-3" d="M436.17,279a38.78,38.78,0,1,1,38.77-38.78A38.83,38.83,0,0,1,436.17,279Zm0-76.8a38,38,0,1,0,38,38A38.06,38.06,0,0,0,436.17,202.19Z"/><path class="cls-3" d="M39.4,249.61a38.78,38.78,0,1,1,38.78-38.78A38.82,38.82,0,0,1,39.4,249.61Zm0-76.81a38,38,0,1,0,38,38A38.06,38.06,0,0,0,39.4,172.8Z"/><path class="cls-3" d="M349.13,105.91A38.78,38.78,0,1,1,387.9,67.14,38.82,38.82,0,0,1,349.13,105.91Zm0-76.8a38,38,0,1,0,38,38A38.07,38.07,0,0,0,349.13,29.11Z"/><path class="cls-3" d="M102.67,105.91a38.78,38.78,0,1,1,38.78-38.77A38.82,38.82,0,0,1,102.67,105.91Zm0-76.8a38,38,0,1,0,38,38A38.07,38.07,0,0,0,102.67,29.11Z"/></g></g><g id="Line"><path class="cls-4" d="M237.44,437.67a204.43,204.43,0,0,1-152-341.1c75.37-83.9,205-90.83,288.84-15.46A204.45,204.45,0,0,1,237.44,437.67Zm.25-407.84a203.26,203.26,0,1,0,135.91,52A203,203,0,0,0,237.69,29.83Z"/></g><g id="World"><g id="World-2" data-name="World"><path class="cls-5" d="M144.92,336.4A138.63,138.63,0,1,0,100,216,138.64,138.64,0,0,0,144.92,336.4Z"/><path class="cls-6" d="M144.92,336.4A138.63,138.63,0,1,0,100,216,138.64,138.64,0,0,0,144.92,336.4Z"/><g class="cls-7"><path class="cls-8" d="M122.49,157.42a4,4,0,0,0,2.62.13,7.76,7.76,0,0,0,1.38-.65c.54-.32,1.67-1.56,2.08-1.49s.07,1.56-.29,2.42a12.56,12.56,0,0,1-2.56,3.7c-1.66,1.59-2.73,2-4.06,2.07-.45,0-2.3,0-2.84.85s-.25,1.12.14,1.27a4.59,4.59,0,0,0,2-.14,1.43,1.43,0,0,1,.85,0c.79.35-.14,2.55.53,3.06.4.3,1.13,0,1.68-.19a11.72,11.72,0,0,0,2.53-.8,7.7,7.7,0,0,0,1.45-1.05,27.18,27.18,0,0,1,3.66-2.29,2.25,2.25,0,0,0,1.27-2.7c-.23-1-1.08-.74-2-.18-1.29.76-2.7,1.85-3.08,2s-.58.22-.51-.1c.15-.63,1.68-1.56,2-1.77.6-.46,1.19-.93,1.77-1.39,1-.75,2.1-1.48,2.58-1.82a7,7,0,0,0,.85-.71,6,6,0,0,0,1.11-1.41c.5-1.11-.18-1.44.29-2.44a7.83,7.83,0,0,1,1.65-2,19.45,19.45,0,0,0,1.77-1.92c1-1.39.63-2.63,1.23-4.16a8.56,8.56,0,0,1,1.41-2.34c.83-1,2-2.24,2.63-3l1.1-1.43a9.87,9.87,0,0,0,1.16-1.89c.21-.45.37-1,.56-1.41a3.08,3.08,0,0,1,.74-1.05,6.73,6.73,0,0,0,1.82-3.4c.28-1.67-.77-1-1.11-1.24-.56-.43-1.27-.17-2,.17-1.66.74-3.53,2.16-5.45,3.27q-3.54,3.41-6.88,7.12c-1.91,2.12-3.71,4.3-5.47,6.51a4.13,4.13,0,0,0,1.56.14c1.28,0,2.94-1.8,4.38-2.73.65-.42,2.56-1.95,2.86-1.32.47,1-1.62,2.82-2.07,3.2a3,3,0,0,0-.93,1.14c-.4.94-1.12,2.25-1.88,2a3.36,3.36,0,0,0-1.4-.39.88.88,0,0,0-.79.72c-.28.85-1.32,2.39-1.77,1.6-.26-.46-.41-1.18-.86-1.29s-.82.06-1.15-.08a.67.67,0,0,1-.18-.11c-1.72,2.29-3.37,4.62-4.93,7A2.66,2.66,0,0,0,122.49,157.42Z"/><path class="cls-8" d="M267.65,121.8a17.26,17.26,0,0,1,3.26-3.66q.9-.77,1.86-1.44c.38-.28.78-.55,1.18-.81a7.66,7.66,0,0,0,1-.52,1.08,1.08,0,0,0-.52-1.82,1.57,1.57,0,0,0-.47-.11,1.28,1.28,0,0,0-1,.39,9.31,9.31,0,0,1-2.64,1.38c-3.9,1.4-6.77,3.68-7.17,7.63a20.22,20.22,0,0,0-.19,4.2c.1.5.19,1-.31,1.23-.32.13-.44.29-.2.7a5.07,5.07,0,0,0,2.93,1.88,18.62,18.62,0,0,0,2,.64,2.43,2.43,0,0,0,2.36-.65c.31-.45-.45-1.19-.93-1.74-.19-.21-.39-.4-.57-.59a6.47,6.47,0,0,1-1.19-2.24,5.27,5.27,0,0,1-.22-1.52A5.78,5.78,0,0,1,267.65,121.8Z"/><path class="cls-8" d="M205.53,121.23c.44.27.87.67,1.3,1a6.34,6.34,0,0,0,1.62.79,18.12,18.12,0,0,1,2,.77l.25.22c.28.3.12.26.17.52.09.5.47.7,1,.83a14.31,14.31,0,0,1,1.38.48c.77.28,2,.14,2.08-.59a5.39,5.39,0,0,0-.23-1.44,11.12,11.12,0,0,1-.51-2.36,2.61,2.61,0,0,0,0-.34c0-.19.34-.54,1-.38.45.11.93.28,1.2.35s.36.07.47.11.35.45.37.57a.38.38,0,0,0,.16.22,1,1,0,0,0,.53.18,5.87,5.87,0,0,0,1.83.17,1.86,1.86,0,0,0,.66-.19.68.68,0,0,0-.16-1.17,19.2,19.2,0,0,1-2.82-.67,6.51,6.51,0,0,1-1.74-1.09c-1-.88-.25-1.3.4-1.47a8.15,8.15,0,0,0,1.53-.55,3.44,3.44,0,0,0,1.72-1.67,1.59,1.59,0,0,0-.39-1.2l-.11-.08a2.27,2.27,0,0,0-2.25-.1,26.36,26.36,0,0,1-2.61.77,6.06,6.06,0,0,1-1.17.27,3.13,3.13,0,0,0-.93.06,3.92,3.92,0,0,0-1.29,1,2.91,2.91,0,0,1-1.61.94c-.37.08-1,0-.94.49.13.66,1.1,1,1.42,1.65s-.37.41-.82.12-.59-.85-1-1.11-.6,0-.61.16c0,.37.21.86-.55.59-.43-.15-.67-.44-1.12-.46-.75,0-2.15.88-1.22,2A3.64,3.64,0,0,0,205.53,121.23Z"/><path class="cls-8" d="M221.85,182.36c-.94-.88-2.66-1-2.86-2.71-.06-.54.47-1.19.13-1.74-.19-.31-.55-.28-.82-.37s-1.55-.75-1.58-1.23-2.7.11-2.22,1c.72,1.25-1.35,2.26-.12,2.86l.16.08a13.72,13.72,0,0,0,.36,1.78c.32.93,1.75.95,2.06,1.75s1.43-.18,2,.43,1,2.18.35,2.67.06,2-.35,2.47c-.26.33-.53.64-.1,1.09.27.27,1-.57,1.24.2s-.74,1.07-.29,1.66,1.1.13,1.51,0c1.68-.61,3.87-1.72,4.64-3.6.29-.72.81-2.45-.16-2.83-.38-.15-.78-.06-1.16-.28a4.83,4.83,0,0,1-1.15-1.15A18.37,18.37,0,0,0,221.85,182.36Z"/><path class="cls-8" d="M106,270.77c.7.42,2.21,2.15,2.94,1.92,1.27-.4-.92-2.59-1.32-2.9s-3.72-3.67-3.69-3.72a.51.51,0,0,0,.09-.56c-.09-.15-.9-.47-1.52-.89q.57,2.47,1.24,4.94C104.47,270.05,105.51,270.44,106,270.77Z"/><path class="cls-8" d="M312.62,287a46.09,46.09,0,0,0-.3-10.06c-.1-.65-.22-1.32-.37-2a6.21,6.21,0,0,0-1.1-2.43,4.59,4.59,0,0,1-.56-.45c-.12-.13-.24-.3-.37-.47a2.71,2.71,0,0,0-.46-.49c-.29-.2-1.09.39-1.06,1.36,0,.61.15,1.28.21,1.74.31,2.44-1.33,4.06-2,6.08-1,2.82.15,5.25.72,7.81.37,1.67.14,4.13,1.09,5.45C311.53,297.89,312.44,289.59,312.62,287Z"/><path class="cls-8" d="M374.67,240.3a1.65,1.65,0,0,0-1.45-.56,20.93,20.93,0,0,0-3.38.88,4.43,4.43,0,0,1-1.9.17,2,2,0,0,1-.95-.45c-.64-.59-.67-1.61-.81-2.6a3.77,3.77,0,0,0-1.48-2.52c-.32-.28-.65-.59-1-.85-.52-.42-1.14-.51-1.66-1a3.14,3.14,0,0,1-1.15-1.76,1.91,1.91,0,0,1,.24-1.24,3.48,3.48,0,0,0-.22-2.66c-.27-.46-.6-.89-.81-1.22a16.46,16.46,0,0,0-1.36-1.69c-.24-.28-.53-.41-.77-.68a15,15,0,0,1-3.39-6.87c-.09-.76,0-1.57.62-1.69a1.16,1.16,0,0,1,.6.07,6.86,6.86,0,0,1,1.45,1c.4.36.8.69.9.66,1.25-.43,2.5,4.23,3.71,1.88.38-.73,1-1.26,1.44-2,.16-.3.31-.61.45-.94a7.32,7.32,0,0,0,.45-2.82,6.3,6.3,0,0,0-.43-1.76,9.48,9.48,0,0,0-2.16-3.09,10,10,0,0,0-1.55-1.38c-.57-.36-.93-.51-1.16-1.32-.5-1.74.48-4.11,2.13-4a2.5,2.5,0,0,0,2.61-1.23A12,12,0,0,1,366,197.5c1.35-1.07,3.2-2.27,4.05-3.88.08-.14.15-.29.23-.44a138.18,138.18,0,0,0-6-16.2l-1-2.28a139.08,139.08,0,0,0-57-61.91l-.82.27a20.13,20.13,0,0,0-3.83,1.22,3.58,3.58,0,0,0-1.65,2.59,3.29,3.29,0,0,1-.73,1.75,3.53,3.53,0,0,1-2,.92c-.54.12-1.62.33-1.18,1.18s2.08,1.64,2.77,2.33c1.53,1.53-1.34.68-2.07.46a7.39,7.39,0,0,0-2.47-.43c-.46,0-1.53,0-1.43.53s.8,1.11,1.17,1.5c.55.58.67.79.21,1.06s-1,.5-1.5.77a5.32,5.32,0,0,1-2.63.78c-1.25-.06-2.41-1.1-3.3-2.18a3.81,3.81,0,0,0-1.55-1.37,3.46,3.46,0,0,0-1.79-.35c-1.16.19-1.05,1.32-.54,2.4s-.44,1.67.16,2.66a7.51,7.51,0,0,0,2.75,2.23c.83.5,2.24,1.14,2.14,2-.15,1.24-1.91.76-3.15.35-1.67-.56-3.33-.9-5-1.46a9.24,9.24,0,0,0-4.3-.35c-.74.11-1.09.6,0,1.28.5.31,2,.73,2.1,1.49s-1.64,1-2.14,1.16a18.15,18.15,0,0,1-4.42,1.29c-1.19.13-2.54-.05-3.54.43a5.78,5.78,0,0,0-1.31.86,3.53,3.53,0,0,0-.92,1.91.77.77,0,0,1-.3.49,2.11,2.11,0,0,1-.53.31,1.78,1.78,0,0,1-2-1.08c-.21-.67-.38-1.4-1.08-1.64a2.9,2.9,0,0,0-2.33.38.91.91,0,0,0-.27.81c.06.55.75,1.92.89,2.95a2.37,2.37,0,0,1-.28,1.65,5.33,5.33,0,0,1-1,.87,2.67,2.67,0,0,0-.8,1.67c-.26,1.26-.42,2.39-1.5,2.93s-2.05.31-3.48-.62a28.63,28.63,0,0,1-3-2.11c-1.4-1.23.94-1.05,1.54-1.08.91,0,1.73-.3,2.61-.39a9.33,9.33,0,0,0,2.1-.48c.54-.2,1.48-.58,1.17-1.47-.69-2-5.21-3.11-6.54-3.5-.63-.19-1.27-.36-1.9-.51-1.05-.25-2.82-.63-4-.85a5.53,5.53,0,0,0-2-.12c-1,.2-1.35,1.65-2.92.06a3,3,0,0,0-2.49-1.23,9.63,9.63,0,0,0-5.4,1.75,5.3,5.3,0,0,0-1.1,1.16c-.52.73-.93,2-1.37,2.42a1.94,1.94,0,0,1-1,.48c-2.34.38-2.58,2.63-2,5.45.14.75.4,1.59.48,2.34a4.85,4.85,0,0,1-.08,1.27c-.11.66-.43,2.2-.65,3.47-.13.77-.28,1.54-.41,2.36-.37,2.26-.87,4.6-1.4,7a8.4,8.4,0,0,0,.24,5.33,5.32,5.32,0,0,0,3.08,2.55,3.6,3.6,0,0,0,3.68-.76c1.53-1.1,2.52-.45,3.91,1.4a5.8,5.8,0,0,0,2.16,2.13,3.21,3.21,0,0,0,2.71-.29c.82-.58.86-1.68.41-2.84a3.5,3.5,0,0,1-.11-2.94,2.85,2.85,0,0,0-.56-2.77c-1-1.44-2.69-3.13-3.22-4.12a4.52,4.52,0,0,1-.57-1.81,8.24,8.24,0,0,1,0-1.58c.1-.81.81-2.44,1.24-3.9a8.84,8.84,0,0,0,.37-2.9,4.78,4.78,0,0,1,.09-1.35,1.92,1.92,0,0,1,1.84-1,1.78,1.78,0,0,1,1.29.65,4,4,0,0,1,.53,3c-.16,1.07-.93,1.53-1.19,2.53s.25,2.48.66,3.72.79,2.73,1.73,3.53c1.18,1,2.69.24,3.73-.14a15.17,15.17,0,0,1,1.53-.52,5.68,5.68,0,0,1,2.39-.19c.42.12,1.08,1,.77,1.36a2.44,2.44,0,0,1-.71.39c-1,.44-2.13.62-3.16,1-.64.25-1.72.49-1.53,1.57.15.81,1.09,1.26,1.66,1.63s1.21.78,1.27,1.53a.64.64,0,0,1-.59.73,3.28,3.28,0,0,1-1.73-.56c-.35-.21-.87-.67-1.16-.38-.47.45.42,2.33.64,2.95a5.73,5.73,0,0,1,.43,3.26c-.62,2.09-2.92,2.69-4.73,3.13a18.76,18.76,0,0,1-3.45.31,5.75,5.75,0,0,1-2.26-.09c-1.76-.64-1.77-3.59-2.56-5.12-.92-1.79-2.14,0-2.1,1.21.06,1.92,2.09,3.59,2,5.43-.07,1.28-1.45,1.71-2.25,2.33a4,4,0,0,0-1.1,3.91,3.55,3.55,0,0,1-.61,2.13c-.41.91-.94,1.7-1.39,2.55a2.55,2.55,0,0,1-1.49,1.37c-.43.13-1.16,0-1.4.38s.16,1-.42,1.47-1.6.42-2.31.74c-.48.22-1.1.78-.44,1.27a7.54,7.54,0,0,0,2.32.63,4.55,4.55,0,0,1,2.72,3c.77,1.94.75,3.66-1.07,4.39s-3.69.84-5.28,2.23c-1.39,1.2-.43,4.28.09,6a3.44,3.44,0,0,0,1.12,1.84c.44.42.75,1.05,1.27,1.33a2.67,2.67,0,0,0,2.13,0,2.49,2.49,0,0,1,2.14.15,2.7,2.7,0,0,0,.52.2c.29.06.44-.75.93-1a3.45,3.45,0,0,1,1-.26,3.21,3.21,0,0,0,1-.23c.29-.16.33-.52.53-.67a3.21,3.21,0,0,0,.93-2.69c0-.51-.05-1,0-1.54a16,16,0,0,1,.34-1.7,8.42,8.42,0,0,1,.11-1.25c.24-.81.88-.88,1.44-1.27a2.13,2.13,0,0,0,.87-2.22c-.07-.76-.36-1.57.24-2.07s1.25-.17,1.82-.32c1-.26,1.59-1.19,2.29-1.9,1.39-1.42,2.89-1.29,4.45.17a15.42,15.42,0,0,0,2.22,1.83c.61.38,1.29.5,1.9.89.78.49,1.64.78,2.39,1.25s1.11,1.87,1.17,2.86c0,.39-.09,1.07.28,1.32s.68-.2.83-.51c.48-1,.06-1.91-.27-3-.15-.5-.41-1.09,0-1.35.16-.11.4-.06.63-.06s0-1.07-.86-1.39a2.89,2.89,0,0,0-1.5-.23c-.35.08-1.61-.9-2-1.11a19.45,19.45,0,0,1-2.68-1.74,4.42,4.42,0,0,1-1.64-2c-.37-1.23.89-1.5,1.71-1.15s.94,1,1.44,1.5c1.12,1.17,2.61,1,3.89,1.43.89.28,1.08,1,1.67,1.76a12.72,12.72,0,0,1,1.38,1.81c.24.5.23.58.67.88a8.52,8.52,0,0,0,1.31.67,5.94,5.94,0,0,1,1.24.55c.4.31.27.31.33.74.13.94.37,1.86,1.33,2.1s.66-1.43.78-2.17a1.76,1.76,0,0,0-.19-1.52c-.3-.42-.88-.58-1.21-1-.84-1,.28-1.24.7-1.78s1-1.74,2.13-1.32c.65.24.66.68.79,1.29a5.65,5.65,0,0,0,1,1.81,7.78,7.78,0,0,0,1,1.76,4.84,4.84,0,0,0,4.34,1.12c.6-.17,1-.8,1.64-.83.27,0,.51.16.77.19a2.86,2.86,0,0,0,1.36-.24c.57-.21,1.08-.57,1.67-.75,1-.28,1.33-.09,1.42,1.09a41,41,0,0,0,.59,5.36c.13.66.78,2.22.52,2.79s-1.56,0-2.1-.12a9.15,9.15,0,0,0-4.62.57,20.25,20.25,0,0,1-2.32.75,4.34,4.34,0,0,1-2.29.19c-1.39-.55-5-2.24-5.68,0-.43,1.52.71,3.81-1.37,4a9.49,9.49,0,0,1-3-.55,21.46,21.46,0,0,0-4.42-.45,5.09,5.09,0,0,1-3-.8c-1.28-.91.11-1.72-.06-2.94a3.4,3.4,0,0,0-1.83-2.57,3.94,3.94,0,0,0-2.53.29c-.42.14-.83.14-1.26.26a5.64,5.64,0,0,0-1.26.76,14.62,14.62,0,0,1-2.88,1.17c-.52.17-1.05.33-1.55.51-.3.11-1.13.25-1.31.54-1,1.57-2.23,3.33-4.08,3.74-1.16.26-2.23.18-3.22,1a11.06,11.06,0,0,0-2.32,3c-.54.91-1,1.86-1.51,2.82-.56,1.12-.16,2.27.22,3.51a3.23,3.23,0,0,1,0,2.21,7.48,7.48,0,0,1-1.85,3.21,7.14,7.14,0,0,0-2.17,3.37,19.81,19.81,0,0,0-.52,3.94A11.27,11.27,0,0,0,222,248.8c.49.54.25,2.74.31,3.46a6.62,6.62,0,0,0,1.3,3.67,6,6,0,0,0,2,1.71c1.56.84,2.78,2.32,4.24,3.47a25.9,25.9,0,0,0,4.37,2.87,9.45,9.45,0,0,0,6.15,1,5.6,5.6,0,0,0,2.71-1.26,4.12,4.12,0,0,1,1.39-.82,9.2,9.2,0,0,0,2.9-1.71c.43-.44.84-.93,1.23-1.36a3.59,3.59,0,0,1,3.17-1.47,5.46,5.46,0,0,1,1.57.48,14.1,14.1,0,0,0,3.06,1.1,3.9,3.9,0,0,0,1.51-.08,3.64,3.64,0,0,1,2.51.36c2.11,1.12,1.86,3.57,1.49,5.73-.34,2,.9,3.6,2.12,4.8.58.58,1.06,1.21,1.64,1.75a7.29,7.29,0,0,1,1.76,2c.39.76.8,1.44,1.19,2.14a18.08,18.08,0,0,1,1.6,4.62c.15.79.25,1.6.33,2.4,0,.4.07.8.1,1.2a13.33,13.33,0,0,1,0,2.2,6.56,6.56,0,0,0-.08,1,11.89,11.89,0,0,0,.3,2.44c.27,1.34.71,3.69,1,5a10.68,10.68,0,0,0,.75,2.32,59.88,59.88,0,0,0,5.59,9c1,1.37,1.85,2.83,2.78,4.19.47.69.87,1.47,1.4,2.13a11.18,11.18,0,0,1,1.21,2.42c.83,1.67,1.72,2.59,3.24,2.58a6.5,6.5,0,0,0,3.47-1.51,15.56,15.56,0,0,0,5.35-6.48,19.59,19.59,0,0,0,1.37-5.64,12.36,12.36,0,0,0,.16-2.74c-.08-1-.25-1.95-.26-2.93,0-1.5-.13-3.12-.06-4.61.11-2.34-.1-4.27.94-6.33a30.56,30.56,0,0,1,1.65-2.68c.92-1.43,2.64-3.82,2.07-6-2.7-10.48-8-17.69-.91-28,1.7-3.48,3.61-9,3.3-13.55-.14-2.15-1.85-3.05-3-2.16a25.29,25.29,0,0,1-2.11,1.5c-.67.41-1.39.71-2.07,1.08a3.72,3.72,0,0,1-2.27.1,2.2,2.2,0,0,1-1.79-1.12c-.5-.71-.63-1.53-1.06-2.26a3.9,3.9,0,0,0-1.77-1.34,15.14,15.14,0,0,1-3.92-3.1,18.67,18.67,0,0,1-2.62-4.47,8.34,8.34,0,0,0-2.23-2.61,22,22,0,0,1-2.4-2.57c-.74-.91-3.39-4-2.18-5.2,1-.92,2.76,2.09,3.4,2.84,1.28,1.48,2.57,2.79,3.88,4.08l2,2c1.12,1.1,2.47,2.45,3,3,.33.34.65.68,1,1a9.83,9.83,0,0,1,1.81,2c1.43,3.14,2.94,4.63,4.72,4,1.63-.59,3.55-3,4.82-4.33a52.24,52.24,0,0,0,6.15-7.39,11.88,11.88,0,0,0,.89-2.66,8.8,8.8,0,0,0,.58-3.15A1.87,1.87,0,0,0,307.4,215c-.55-.16-1,.19-1.53,0s-.93-1.13-1.45-1.54c-1-.81-1.57.14-2.21.82s-2,2.18-3,1.75c-.68-.29-.54-.92-1-1.41s-.7-.12-1.14-.13c-1.12,0-2-1.41-2.74-2.25-.59-.64-1.9-2.07-1.89-3.06,0-1.66,2.2-.09,2.81.31a22.6,22.6,0,0,1,2.31,1.31,3.63,3.63,0,0,0,2,.74,13.39,13.39,0,0,0,2.14.29c.53,0,1-.37,1.54-.34a1.83,1.83,0,0,1,.93.33,5.21,5.21,0,0,0,3.86.66c1.42-.41,2.79-1.18,4.1-1.67a6.53,6.53,0,0,1,3.24-.62,6.12,6.12,0,0,1,3.56,2c.72.9,1.49,2.22,2.66,2.43s1.13-2.36,1.89-2c.41.22.65,1.18.81,1.6a13.69,13.69,0,0,0,.72,1.56c.59,1.17,1.19,2.36,1.8,3.55a62.55,62.55,0,0,0,4.06,7.17c.73,1.07,1.84,2.7,3,2.78.53,0,1.09-.83,1.28-1.39a6,6,0,0,0,.18-1.8,18.16,18.16,0,0,0-.12-2.34,24.67,24.67,0,0,1-.11-4.34,13.69,13.69,0,0,1,.36-1.93,14.82,14.82,0,0,1,1.22-3.33,13.08,13.08,0,0,0,1.25-2.31c.12-.36.22-.73.33-1.09a18.17,18.17,0,0,1,.73-2.08,2.2,2.2,0,0,1,.58-.84,4.88,4.88,0,0,1,1-.43c.69-.34.75-1,1.25-1.5s1.24-.18,1.74.15c1.41.92,2,2.89,2.61,4.5.32.8.68,1.84,1.49,1.71s1.14-.76,1.94-.28,1.27,1.82,1.89,2.65,1.47,1,1.87,2c.25.64,0,.82-.1,1.41s.12.91.43,1.4a3.34,3.34,0,0,1,.55,1.79,5.38,5.38,0,0,0,.06,1.79.81.81,0,0,0,.75.56,2.4,2.4,0,0,1,1.48,1.17c.21.38.39.78.53,1.06a6.4,6.4,0,0,0,.71,1.25c.1.12.21.21.31.31a3.12,3.12,0,0,1,.62,1.39,1.08,1.08,0,0,1-.2,1c-.21.18-.56.1-.92,0-.51-.19-1.3-.5-1.76-.63a2,2,0,0,0-.83-.07c-1.41.28,1,3.14,1.49,3.57s.83.6,1.22.95a4.05,4.05,0,0,1,.89,1.39,17.05,17.05,0,0,0,2.15,2.87,13.44,13.44,0,0,0,2.33,2.32,7.15,7.15,0,0,0,1.3.75c.13,0,1.34.31,1.35.36.89,4,3.53.64,5.25,1.47,1.38.81,2.63,0,3.91-.45a6.09,6.09,0,0,0,1-.48c0-.37,0-.74.06-1.1A1.67,1.67,0,0,1,374.67,240.3Zm-98.79-45.75a15,15,0,0,1-3.8,0c-1.8-.1-4.23,1.24-5.75,2a5.42,5.42,0,0,1-2.4.73c-1.78,0-1.84-4-1.66-6a7.76,7.76,0,0,1,.69-3c.9-1.55,3.91-.69,3.62-.12s.44.88.67,1.32.83.77,1.17.21-.8-2.53.45-3.72c.15-.14.32-.28.49-.42,1.36-1,2.38-.41,2.7,1.63a4.05,4.05,0,0,0,.44,1.39c1,1.86,3.11,1.54,3.19,1.76s.91.28,1.71.84S277.58,194.17,275.88,194.55Zm19.37,1c.11,1.58-1.55,2.39-3.45,2s-2.79-3.07-3.27-4.85-3.75-2.66-4.62-4.58c-1.55-3.4.67-7,2.91-7.38,1.73-.33,1.28,2.47.93,4.34-.13.66.3,1.1,1.06,1.69,1.61,1.25,3.3,1.55,4.22,2.07s.29,1.65-.53,2.18S295.12,193.6,295.25,195.6Z"/><path class="cls-8" d="M210.13,323.22c.25-1.32,1.76-3,3-3.89.93-.73,1.62-.95,2-2.45a9.26,9.26,0,0,0-.65-5.19c-.53-1-.34-2.27-.72-3a18.8,18.8,0,0,1-2.2-5.06c-.63-3.34,1.73-6.17,1.17-9.7-.35-2.2-3.12-3.65-4.85-3.94s-4.24-2.56-6-2.06l-.57.17c-1.74.5-5-1.09-6.9-1.28a11.54,11.54,0,0,0-1.31,0c-1.89.05-4.51-1.52-6-3.27s-2.89-3.1-4.53-3.5c-2.21-.54-4.36,1.74-6.55.12a9.09,9.09,0,0,0-3.09-1.62,9.56,9.56,0,0,1-3.21-1.36c-1.43-1.07-2.06.2-3.42,0-.8-.12-1.15-.43-2-.21a29.71,29.71,0,0,1-3.2.88c-.89.14-1.32-.22-2.17-.57-1.92-.79-4.22.81-4.84,2.45-.31.8-.21,1.89-.53,2.63-.65,1.5-3.14,1.1-4.65.74a8.06,8.06,0,0,1-3.25-1.56c-1.14-.93-1.86-1.07-2.22-2.57-.26-1.09-.42-2.54-1.45-3.28a3.54,3.54,0,0,0-2.78-.22c-.7.15-1.52.68-2.29.48a2.58,2.58,0,0,1-1.69-2c0-.61.51-1.12.67-1.66a1.92,1.92,0,0,0,.12-.93c0-.16-.36-.78-.35-.84.32-1.35-.14-2-.88-2.06-1.32-.19-3,1.45-2.89,3s-2,3.23-3.77,3c-3.4-.51-6.39-5.82-6.47-9.93,0-1.88,1.22-4.81,2.74-5.45,1.22-.51,2.72-.35,4.22-.62.63-.06.49-.48.37-.91-.2-.68,1.17-1,2.14-1.34a5.37,5.37,0,0,1,4.75.75A13.28,13.28,0,0,1,137.6,259c1.13,1.58,3.76,2,2.79.19-.6-1.11-1.61-2.45-2.32-3.71-1-1.75-.23-4.62.71-5.93a19.87,19.87,0,0,0,1.68-2.4,4.27,4.27,0,0,0,.72-2.56c-.21-1-1.14-1.79-1.36-2.94a5.73,5.73,0,0,1,0-2.37,7,7,0,0,1,1.78-3.43c.82-.82,2.57-1.11,2.75-2.61s0-2.33.78-3.7a10.36,10.36,0,0,1,1.86-2.23c1.14-1.06,1.06,1.5,2.62.87a13.84,13.84,0,0,0,4-3.48c1.23-1.45,1.41-3.41.79-3.86s-1.19,3-2.84,3.05a1.86,1.86,0,0,1-.52,0c-1.61-.32-2-2.83-2.26-2.71s-.34-.3,0-.57.15-3-1.27-2a9.32,9.32,0,0,0-.73.62c-1.34,1.2-1.84,0-.52-1.22,2.1-1.94,4.92-3,7.48-4.38,1.54-.84,2.34-.12,1.85,1.93s-.69,3.39.57,3.32c1.68-.1,3.42-1.35,3.62-.72.12.41.25.78.68.24.67-.83,1.9.33,2.33-.9a1.81,1.81,0,0,0-.58-1.73c-.66-.74-1.61-2.15-2.58-1.94s-1.8-2.19-1.77-4.33c0-.23,0-.45,0-.67-.05-2.14-2.9-3.11-4.38-3.87-4.34-2.25-3-2.77-5.79-6.76-1-1.48-2.4-.83-3.37.93-.52.93-1.1,1.66-1.67,1.73-1.46.18-1.54-4.33-2.58-4.53-.57-.11-1.28,0-1.76-.81-.79-1.42-2.4-1.56-3.8-.91s-2.21,3.53-1.79,5-.42,4.19.32,5.13,2,3.51,1.27,5.39c-.45,1.13-1.25,2.13-1.6,3.25-.62,2,1.25,4.36.81,5.5a1.13,1.13,0,0,1-1.38.85,4.37,4.37,0,0,1-2.49-2.25c-.83-2.33-.21-4-2.36-4a21.41,21.41,0,0,1-8.26-1.62c-1.22-.53-1.3-1.63-1.86-2.93s-1.83-1.39-.67-3.69c.72-1.43,2-2.65,2.26-4.59s-1.36-1.62-.63-3.27,3.2-1.7,4.21-2.47a2.43,2.43,0,0,0,1.12-1.57c.26-1.36-.71-1.17-1.05-1.73-.1-.18.23-.39.58-.55a3.76,3.76,0,0,0,1.34-.76,2.69,2.69,0,0,0,.51-.91,5.38,5.38,0,0,1,.21-1,1.79,1.79,0,0,1,.73-.72,4.6,4.6,0,0,0,1.73-1.2,6.77,6.77,0,0,0,1.89-3.07,5.69,5.69,0,0,0,.06-2.45c-.21-.4-.74-.21-.83-.89-.29-2.25,2.05-2.85,2.78-3.21,1.12-.53,2.43-1.21,2.51,1.07,0,1,.25,3.4,1.24,1.81.56-.91.75-1.32,1.33-.77a2.08,2.08,0,0,1,.93,1.82,2.66,2.66,0,0,1-.87,2c-.7.8-1,4.17-2.29,4.75l-.64.28c-1.29.62-.61,3.82.61,2.87s2.93-.46,4.08.44c1.61,1.26,3.91,2.49,4.86,2.24,1.43-.36-.12-3.27.53-3.71a3.88,3.88,0,0,1,1.19-.62c.23-.05,0-1.94-.06-2.13a2.82,2.82,0,0,0-.86-1.37c-.76-.62-1.67-.48-2.24-1.64s.49-2.85,1.32-2.55c.4.14.71.65,1,1.15.51.79,1.34,1.1,1.64.85a1.88,1.88,0,0,0,.5-.61c.33-.65.17-1.32.41-2,.39-1.06,1.25-1,1.63-2a1.19,1.19,0,0,0-.71-1.72c-1.25-.57-2.57-.75-3.76-1.26-.24-.1-.48-.15-.68-.26-.37-.2-.66-1.27-.69-2.1a7.17,7.17,0,0,0-.12-1.44,2.12,2.12,0,0,0-1.08-1.27,7,7,0,0,0-1.53-.88c-.87-.35-2.7,0-3.53-.94s-1.53-2.21-2.47-1.9c-.11,0-.4.47-.55.57a1,1,0,0,1-.63.2c-.42,0-.73-.32-1.12-.42a2.45,2.45,0,0,0-2.47.8,10.45,10.45,0,0,1-1,.88,10.25,10.25,0,0,1-2,.86,10,10,0,0,0-2.44,2.55,8.22,8.22,0,0,0-1.14,2.14c-.38,1.22-.49,3.07.25,3.09s1.9-.64,2.77-.77,2.63-.63,2.29,1.41c-.26,1.55-1.9,1.49-1.74,3.24a4,4,0,0,1,.16,1.76,7,7,0,0,1-.88,1.77,10.83,10.83,0,0,1-1,1.33c-.49.51-1.29.52-1.36-.32,0-.68.48-1.35.5-2.06s-.36-.81-.72-.92a2.12,2.12,0,0,0-.62,0,1.73,1.73,0,0,1-1.2-.53,3.93,3.93,0,0,1-.47-.66c-.23-.42-.57-.79-.83-1.25a3.93,3.93,0,0,1,.09-2.95c.19-.29.41-.56.65-1a15.39,15.39,0,0,0,1.2-2.56c.72-1.91.66-3.57-.55-3.18s-2.78,2.28-3.23,4.49a20.66,20.66,0,0,1-.71,3.81c-.44,1.15-1.17,2.08-1.56,3.23a19.42,19.42,0,0,0-.37,3c-.2,1-.44.86-.92,1.32-1.08,1.05-.52,3.18-1.52,4.43a3.07,3.07,0,0,1-1.18.76,4.38,4.38,0,0,1-2.18.52c-.21,0-.5,0-.44-.5.09-.7.66-1,1-1.35a6.48,6.48,0,0,0,1.29-4.65c-.21-.73-.88-.55-1.32-.79a3,3,0,0,1-1.2-2.77c-1.36,3.44-2.56,6.92-3.63,10.44a.64.64,0,0,1,.66.29c.21.33.13.79,0,1.41a10,10,0,0,0-.23,1.17c-.08.63-.53,3.05-1.31,2.73a3.5,3.5,0,0,1-.58-.34,138.35,138.35,0,0,0-1.27,65,1.17,1.17,0,0,1,1.18.06c1.45.8,2.76,3.45,4.21,4.25,2.42,1.34,5.26,3.05,7,5.35,1.12,1.51,2.73,3.76,4.41,4.36,3.28,1.19,7,1.86,9.89,1s7.14,3.57,9.62,1.45c.3-.25,2.32,1.82,2.6,2.09a10.39,10.39,0,0,0,3.71,2.11,21.07,21.07,0,0,0,4.3.92c2.66.4,5.94,1.21,6.18,5.07.15,2.32-.39,4.67-.54,7s-.08,4.85,1.59,6.84,3.86,3.12,5.5,5,1.82,4.77,3.55,6.86c2.18,2.61,4.56,2.65,7.7,3.22a10.12,10.12,0,0,1,6.2,3.36,88.75,88.75,0,0,1,10.28,13.58c3.77,6,7.17,12.48,12.17,17.5a29.19,29.19,0,0,0,8.24,6.13c2,1,3.81.66,3.23-2-.35-1.61-1.89-2.7-2.79-4s-.53-2.7-.86-4.21c-.28-1.26-1.77-2.94-1.1-4.13s2.12-.77,2.34-2.22c.27-1.82-1.72-2.24-2.28-3.51s1.7-1.74,2.16-3.07c.3-.85-.13-1.78,0-2.64.12-.69.45-.86.75-1.4a7.25,7.25,0,0,0,.56-3.39C212,326.81,209.77,325.09,210.13,323.22Zm-88.66-92.05c1.1-1.55,3-4.91,4.4-4.48a5.12,5.12,0,0,1,1.9,1.6c1.13,1.27,3.39,1.34,4.77,1.69s-.12,1.92-.07,3.18-.72,1.91-.82,1.22c-.06-.42-.16-.74-.69-.38-.75.51-.68-.15-.59-.88.13-1-2.22-1.34-2.39.69a14.91,14.91,0,0,0,0,1.65c.06,2-1.83,2.37-1.86.35,0-.26,0-.52,0-.78.08-2-1-4.19-2.51-3.7C121.86,231.89,120.28,232.84,121.47,231.17Z"/><path class="cls-8" d="M115.1,170.85c.4.68,1.25-.17,1.38-.53s.82-2.47.2-3.16c-.29-.34-.71-.17-1.11.19-.42.77-.81,1.54-1.21,2.32A5.56,5.56,0,0,0,115.1,170.85Z"/><path class="cls-8" d="M212.92,192c.81,1.19,2,0,2.73-.43a3.8,3.8,0,0,0,1.43-3,3.58,3.58,0,0,0-1-2.32c-.56-.58-1.89-1.5-2.48-.81-.24.28,0,.66-.24.93s-1,.31-1.37.51c-1,.57.15,1.54.51,2.17a2.55,2.55,0,0,1,.29,1.43C212.81,190.94,212.62,191.51,212.92,192Z"/><path class="cls-8" d="M243.32,205.17c.23-1.92-2.55-6.68-2.75-4.64a8.19,8.19,0,0,0,0,1.12C240.69,203.75,243.1,207.09,243.32,205.17Z"/><path class="cls-8" d="M375.43,222.05c.42-1.38.14-3.05-1.21-2.91s-1.61,1.67-2.29,3a28.39,28.39,0,0,1-2.93,4.29c-.66.82-2.21.53-2.1,2.13a7.43,7.43,0,0,0,1.55,3.86,7.2,7.2,0,0,0,2,2.24c1.59.94,3.68,1,4.92-1a3.37,3.37,0,0,0,.43-1c.14-.61.2-1.78.41-2.53,0-1.89-.13-3.78-.25-5.67A2.19,2.19,0,0,1,375.43,222.05Z"/><path class="cls-8" d="M149.64,265.53a8.14,8.14,0,0,1-3.9-.28c-1.23-.34-2.68-.76-3.67,0-.74.59.56,1.24,1.23,1.5a13.1,13.1,0,0,0,1.51.45c.83.21,2,.72,2.66.88a1.84,1.84,0,0,0,1.13-.05c1.41-.52,2.64-1.84,4.42-1.14.42.16,1.2.77,1.64.59l.08,0c.42-.31.09-1.14-.24-1.53C153.2,264.42,150.93,265.28,149.64,265.53Z"/><path class="cls-8" d="M250.36,208.5a1.47,1.47,0,0,0-1.39-1.59c-.51-.08-.45.47-.3,1.08C248.85,208.79,250.22,209.81,250.36,208.5Z"/><path class="cls-8" d="M235.86,207.52c.41-.77.12-1.38-1.61-.82-.28.05-.58.64-.71,1.23C233.36,208.76,235.15,208.83,235.86,207.52Z"/><path class="cls-8" d="M199,165.17c.43-2.11-2.58-4.37-3.49-4-.55.24-1,.92-1.38,1.25a10.3,10.3,0,0,1-1.83.69c-1,.39-1.63,2.13-2.65,1.35s-.87,2.55.68,4.09C193.89,172.12,198.36,168.34,199,165.17Z"/><path class="cls-8" d="M124.7,192.59c-.29,1.94,0,3.6.86,3.76s2.62-1.58,4-2.36c1.91-1.12,0-1.63-1.75-2.66C126.63,190.65,125,190.65,124.7,192.59Z"/><path class="cls-8" d="M181.17,148c.88-1.1,2.39-3.27,1.39-5.27-.6-1.2-1.44-1.47-1.79-2.89a5.41,5.41,0,0,1-.15-1.62,16.27,16.27,0,0,1,.69-2.69,1.74,1.74,0,0,0-.24-1.47c-.58-.87-1.52-.71-2.14-1.17-3.2-2.37,3.19-10.37,2-11.58a1.18,1.18,0,0,0-.82-.27,6.74,6.74,0,0,0-1.8.21,3.3,3.3,0,0,0-.93.42,3.18,3.18,0,0,0-.89,1.33c-.39.89-.93,1.9-1.22,1.72-.11-.07-.22-.29-.5-.54-.78-.72-.66,0-1.23.51-.28.27-1.39.68-1.73-.31s.44-2.35.61-3a2.56,2.56,0,0,1,.67-1.24c.48-.46.05-1.82-1-2.37a6.11,6.11,0,0,0-3.19-.54,9.25,9.25,0,0,0-5.7,2.32,13.47,13.47,0,0,0-2.48,2.63c-1,1.44-1.65,4.25-2.81,5.87a2.23,2.23,0,0,1-2.29,1c-1.46,0-3.35,0-5.09,3.19-1.08,2,0,1.85-.28,3.48s-2,1.8-2.61,2.24a4.72,4.72,0,0,0-.77.81,4.55,4.55,0,0,0-.44,2.9c.1.31.09.61-.6,1.64a25.52,25.52,0,0,1-3,3.57,6.41,6.41,0,0,0-1.76,3.35c-.27,1.32.14,1.18.58,1.45a1.87,1.87,0,0,1,.55.57c.25.41.62,1.61,1.21,1.63s2.14-1.19,3.3-2c2-1.41,3.9-2.54,5.41-1a4.36,4.36,0,0,1,1.07,1.92,21.63,21.63,0,0,1,.21,5.71,4.18,4.18,0,0,0,.34,2.46c.85,1.16,2.41.72,3.32,2,.72,1.05.72,2.79.39,4.43-.38,1.83-1.2,2.68-1.76,4.3s.15,3,.31,4.49a14,14,0,0,0,1.67,5,39.87,39.87,0,0,0,3,4.8,6.61,6.61,0,0,0,1.48,1.57c.92.63,2.91.28,4.19-.42a4.58,4.58,0,0,0,2-2.06c1-2.16,0-4.8,0-7.14a5.87,5.87,0,0,1,2-4.63c1.11-1,2.7-1.93,3.43-3.56.6-1.34.68-3.21,1.36-4.47.91-1.7,2.91-2.19,4.16-3.19.86-.68,2.54-2.22,2.33-3.72-.12-.8-.52-1.13-.35-2a3,3,0,0,1,.81-1.31c.13-.14.41-.3.66-.5s.24-1.32-.19-1.73-.62-.53-.78-.72C180.6,150.7,180.11,149.35,181.17,148Z"/><path class="cls-8" d="M115.84,175.72c.46-.62,1-1.37.67-1.61-.11-.08-.3,0-.41-.1s-1,.14-2.33,1.35-1.34,2.76-2.3,3.52.4,2.55,1.48,2.83c1.62.43,3-1.61,3.58-3.36C117.3,176.13,115.19,176.6,115.84,175.72Z"/></g><g class="cls-9"><path class="cls-10" d="M191.56,321c-82.13-33.65-80.42-168.13-17.75-210.86h0c-2.38,1.23-4.74,2.52-7.07,3.9a138.64,138.64,0,1,0,205.5,152.2C360.27,297.85,277.75,356.33,191.56,321Z"/></g></g></g><g id="Character_6" data-name="Character 6"><g id="Character"><path class="cls-11" d="M393.17,430.18a38.41,38.41,0,1,1,38.41-38.4A38.45,38.45,0,0,1,393.17,430.18Z"/><path class="cls-4" d="M393.17,354.37a37.41,37.41,0,1,1-37.4,37.4,37.4,37.4,0,0,1,37.4-37.4m0-2a39.41,39.41,0,1,0,39.4,39.4,39.45,39.45,0,0,0-39.4-39.4Z"/><g id="Character-2" data-name="Character"><path class="cls-12" d="M304.44,370.85a4.6,4.6,0,0,1,2.74.22,30.13,30.13,0,0,1,3.92,2.19c2,1.09,5.24,2.89,7.57,2.78.47,0,1.45-.21.8-.8a18.86,18.86,0,0,1-2.44-2.37,4.09,4.09,0,0,1-1-3.17,1.45,1.45,0,0,1,.48-.88c.39-.29.66-.11,1,.12a10.14,10.14,0,0,0,1.05.64c.73.41,1.45.82,2.18,1.25,4.22,2.47,8.45,5.36,10.95,9.7.36.62,2.54,5.57,3.95,8.37,1.15,2.54,9.84,18.49,9.84,18.49L361,392.29c3.47-3.47,6.93-6.68,10-7.86a43,43,0,0,0,5.38-2.8L370.58,409s-16.37,12.31-18.71,14c-3.47,2.51-10.39,6.58-13.83,2.33-4.66-5.76-6.93-14.07-9.11-20.41s-3.35-10.19-4.6-12.37-3.3-2.34-4.73-2.79a22.34,22.34,0,0,1-5.69-2.48,20.94,20.94,0,0,1-4.37-3.23,6.41,6.41,0,0,1-1.69-2,18.24,18.24,0,0,0-.41-2.16c-.34-.79-1.05-1.4-1.31-2.22a8,8,0,0,1-.13-2,3.44,3.44,0,0,0-1.45-2.38,3.15,3.15,0,0,1-.95-1.11C303.32,371.38,303.83,371,304.44,370.85Z"/><path class="cls-13" d="M377,381a23.36,23.36,0,0,0-9.27,4.51c-3.73,2.89-22.09,19.09-22.09,19.09l-7.8-11.36s-.13,3-4.49,5.54c-4.6,2.66-6.26,1.76-6.26,1.76s3.41,13.71,7.17,20.46,5.9,8.94,12,6.17,27.08-18.38,27.08-18.38Z"/><path class="cls-14" d="M321.32,378.06a15,15,0,0,0,5.19,6.53,6.22,6.22,0,0,1-3.86-2A5.83,5.83,0,0,1,321.32,378.06Z"/><path d="M345.67,404.62c2.62,4.55,3.44,10.39,2.9,13.38,1.9-4.81,2-9.77-1.22-14.87Z"/><path class="cls-15" d="M420.54,402.27c-.76,4.59-2.44,12.14-3.56,18.35a37.41,37.41,0,0,1-49.08-1.28V414s-4.27-4-3.62-11.39S374.5,383.47,377,381c2-.79,10.87-2.34,10.87-2.34a86.43,86.43,0,0,1,21.43,2.52c2.7.7,6.23,1.91,6.23,1.91C416.69,386.08,421.87,394.29,420.54,402.27Z"/><g id="Head"><g id="Head-2" data-name="Head"><path class="cls-3" d="M374.13,350.93c-4.12-15.19,9.88-23,23.81-20.51,4.59.81,10.52,3.43,11.15,10,6.06,1.9,9,10,5.24,18.68-2.72,6.29-8.15,9.42-10.61,13.28Z"/><path class="cls-12" d="M409.37,353.1c-3.9-1.7-5.86,2.38-5.86,2.38-2.53,1.58-4-3.5-4.54-5-1-2.67-1.89-6.48-4.85-7.59-2.2-.82-4.69,0-6.71,1.2a5.08,5.08,0,0,1-4,.54c-1.2-.33-1.58-2.22-2.68-2.81-3.17-1.69-5.32,3.58-6.06,6a30.66,30.66,0,0,0-.95,9.4c.23,11.32,3,16.31,6.17,17.65a15.89,15.89,0,0,0,8.08,1l-.06,3.34a15.27,15.27,0,0,0-2.72,11.65c6.31-.72,15.55-4.18,18.59-9.89l0-16.78c.71,1.48,4.07,2.18,6.14-.48C412.57,360.26,413.1,354.73,409.37,353.1Z"/><path class="cls-16" d="M384.08,367.07l5.3-1.19a2.79,2.79,0,0,1-2,3.44A2.85,2.85,0,0,1,384.08,367.07Z"/><path class="cls-17" d="M386.23,369.31a2.56,2.56,0,0,0,1.17,0,2.65,2.65,0,0,0,2-2.06A3.1,3.1,0,0,0,386.23,369.31Z"/><path class="cls-14" d="M387.94,375.86c3.66-.56,10.36-2.35,11.47-5.37,0,0,.17,2.45-2.67,4.61-2.37,1.8-8.84,2.93-8.84,2.93Z"/></g><path class="cls-18" d="M376.43,349.39l3.78-1.08a1.88,1.88,0,0,0-2.36-1.38A2.06,2.06,0,0,0,376.43,349.39Z"/><path class="cls-18" d="M393.2,350.51l-3.74-1.2a1.89,1.89,0,0,1,2.4-1.31A2.06,2.06,0,0,1,393.2,350.51Z"/><path class="cls-13" d="M376.7,355.22a1.62,1.62,0,0,0,1.46,1.77,1.66,1.66,0,1,0-1.46-1.77Z"/><path class="cls-13" d="M388.76,356.12a1.6,1.6,0,1,0,1.72-1.54A1.64,1.64,0,0,0,388.76,356.12Z"/><path class="cls-14" d="M392.47,355.32a.46.46,0,0,1,.24-.17l.51-.19.67-.24.58-.18a2.21,2.21,0,0,1,.37-.08,1.12,1.12,0,0,1,.48,0c.12,0,.15.19.12.29a.41.41,0,0,1-.28.28,2.29,2.29,0,0,1-.28.09l-.19,0-.08,0h0l-.17.05-.61.2a3.61,3.61,0,0,1-.8.2.91.91,0,0,1-.4-.06C392.5,355.55,392.41,355.43,392.47,355.32Z"/><path class="cls-14" d="M392.59,356.56a.82.82,0,0,1,.58-.33,4.67,4.67,0,0,1,1-.06c.37,0,.75,0,1.13.06s.15.57-.12.6a9.46,9.46,0,0,1-1.41,0,5.42,5.42,0,0,0-.57,0h-.26a.52.52,0,0,1-.17,0c-.1,0-.09,0-.16-.1A.12.12,0,0,1,392.59,356.56Z"/><path class="cls-14" d="M392.64,357.36c.1-.09.24-.05.35,0a1,1,0,0,1,.25.06l.5.16.48.13.2.05.25.08a.2.2,0,0,1,.14.2v.05a.32.32,0,0,1-.16.27.41.41,0,0,1-.22,0h-.07a1.46,1.46,0,0,1-.22,0l-.26-.07a4.74,4.74,0,0,1-.5-.15,1.72,1.72,0,0,1-.6-.31.55.55,0,0,1-.15-.19A.27.27,0,0,1,392.64,357.36Z"/><path class="cls-15" d="M369.7,351.43a3.46,3.46,0,0,0,.77,1.68,1.54,1.54,0,0,1,.3.6,30.72,30.72,0,0,0,1.11,4.5,5.36,5.36,0,0,0,4.83,3.41,6.62,6.62,0,0,0,1.63-.05l.12,0a4.45,4.45,0,0,0,1.32-.44l.07-.05L380,361a.85.85,0,0,1,.14-.09l.13-.1.14-.11.13-.11a3,3,0,0,0,.25-.25,5.2,5.2,0,0,0,1-1.63c.67-1.51.45-3.69,1.59-3.88h.28c1.54.1,1.41,2.46,2.3,4.2a6.3,6.3,0,0,0,5.69,3.69l.43,0h.35a5.07,5.07,0,0,0,.8-.07l.25,0,.25-.06.15,0a4.34,4.34,0,0,0,.9-.37l.3-.19a3.52,3.52,0,0,0,.51-.43,4.79,4.79,0,0,0,1-1.52,25.68,25.68,0,0,0,.85-4.35,1.64,1.64,0,0,1,.25-.63,2.74,2.74,0,0,0,.73-1.54,1.52,1.52,0,0,0-1-1.45l-.82-.15c-2.65-.46-6.1-.79-8.15-.34-2.57.56-3.45,1.34-4.9,1.24s-2.23-1-4.69-1.94a22.35,22.35,0,0,0-7.64-.8l-.76,0C370.08,350.1,369.64,350.71,369.7,351.43Zm17,2.53a2.11,2.11,0,0,1,.72-.56l.14-.06.07,0,.36-.15.33-.12a10.33,10.33,0,0,1,1.1-.29l.44-.08a10.54,10.54,0,0,1,1.13-.11h.27c2.48-.07,4,.6,4.62,1.14s.36,2.85.14,4v.08a.29.29,0,0,0,0,.09c0,.14-.06.3-.1.47s-.05.19-.08.29h0c0,.15-.1.31-.16.48h0l-.06.16-.05.1a.54.54,0,0,1-.05.11l-.06.13a1.09,1.09,0,0,0-.08.15c0,.06-.07.11-.1.16l-.11.16a3.63,3.63,0,0,1-3.45,1.45,5.13,5.13,0,0,1-3.69-1.6h0a5.63,5.63,0,0,1-1.24-2.42C386.45,356.18,386.25,354.65,386.73,354Zm-14.65-2a2,2,0,0,1,.6-.35l0,0,.27-.09.17,0,.13,0,.09,0h0l.13,0,.57-.07h.64l.4,0h.28a10.68,10.68,0,0,1,1.15.17c1.78.35,3.65,1.27,4.14,2s.41,2.26.2,3.55a5.81,5.81,0,0,1-.21.85.19.19,0,0,0,0,.07l0,.08,0,.06a.3.3,0,0,1,0,.1l-.09.21-.09.18,0,.07a.41.41,0,0,0-.07.11l-.07.11h0a3.61,3.61,0,0,1-3.67,1.49,4.79,4.79,0,0,1-1.87-.55,5.75,5.75,0,0,1-2.48-3.92C371.94,354.76,371.56,352.43,372.08,352Z"/><path class="cls-15" d="M397.59,352.24l7.69,1.43a5.94,5.94,0,0,0-1.47,1.55l-6.26-1.07Z"/><path class="cls-14" d="M384.31,355l-1,9.22-5.42-1.91,5.89-7.52A1.25,1.25,0,0,1,384.31,355Z"/><path class="cls-19" d="M405.27,362.33a1.44,1.44,0,1,0,1.44-1.44A1.43,1.43,0,0,0,405.27,362.33Z"/></g><path class="cls-12" d="M377.66,434c-2.55-.27-5-2.62-8.29-3.87s-6.1-1.29-8.36-2.21c-.93.54-.45,2.5.66,3.35,1.72,1.31,4.34,2.14,3.72,2.83-.93,1-4.47.33-5.54.11-3.31-.69-6.83-2.68-10.29-1.94a1.38,1.38,0,0,0-.94.51,1.19,1.19,0,0,0,.26,1.41,7,7,0,0,0,1.28.87,1.75,1.75,0,0,1,.87,1.21c0,.47-.24.93-.18,1.4a1.69,1.69,0,0,0,.4.8,5.29,5.29,0,0,0,1.23,1.13,9,9,0,0,1,1.13.78,11.78,11.78,0,0,1,2,2c1.81,3,5.7,3.84,8.85,4.39,6.74,1.17,9.84-.25,13.82-.17s20.9-.44,29.6-1.07c9.11-.65,10.21-2.34,12.77-11a248.26,248.26,0,0,0,6.83-31c1.43-10.91,0-16.54-10.81-19.95-3,2.06-6.77,9.53-8.6,24l-3.9,21.81S380.22,434.3,377.66,434Z"/><path class="cls-13" d="M415.56,383.12c4.85.95,9.32,2.31,11.82,6.25s1.6,8.24.57,16.38-6.65,29.4-8.07,33.92-2.25,5.55-7.09,6.38-29.55,1.07-29.55,1.07.93-2.15.56-6.89-1.92-6.65-1.92-6.65l22-4.51s3.39-20.39,4.6-26.8S411.06,389,415.56,383.12Z"/><path d="M403.88,429.07c2.95-.33,7.9,1.65,9.36,4.39-.62-2.88-3.66-6-9.06-6Z"/></g><circle class="cls-4" cx="290.21" cy="307.69" r="2.36"/><polygon class="cls-4" points="363.53 368.83 311.01 308.19 290.21 308.19 290.21 307.19 311.47 307.19 364.29 368.17 363.53 368.83"/></g></g><g id="Character_5" data-name="Character 5"><g id="Character-3" data-name="Character"><path class="cls-11" d="M79.24,432.72a38.4,38.4,0,1,1,38.4-38.4A38.44,38.44,0,0,1,79.24,432.72Z"/><path class="cls-4" d="M79.24,356.92a37.4,37.4,0,1,1-37.4,37.4,37.39,37.39,0,0,1,37.4-37.4m0-2a39.4,39.4,0,1,0,39.4,39.4,39.44,39.44,0,0,0-39.4-39.4Z"/><g id="Character-4" data-name="Character"><path class="cls-20" d="M149.49,358.08c.54-2.94.81-4.15.39-4.94-.32-.61-.7-.86-1.1-.81.1-.88.12-2.34-1.35-2.66,0,0,.06-.7.14-1.4.11-1.11-.41-1.88-1.21-2,.71-1.92.64-3.49-.38-3.87-.34-.13-2.13,1.29-3.18,2.3-3.61,3.46-3.6,1.91-6.26,8.44-.91,2.23-2.76,5.38-3.45,9.09-.39,2.09,1,9-1.14,14.38-1.77,4.39-5.37,10.92-10.21,19.06,0,0-4.26-4-9.31-9.33-9-9.58-9.71-11.5-16.23-12.8-6.59,3-3.16,17.68.76,24.63a190.46,190.46,0,0,0,22.22,17.71c8,5.29,12,4.26,14.89-1.68,4-8.16,9.54-29.39,10.67-33.37,1-3.63,3.49-4.08,4.24-7.73,1.11-5.33-.77-8.8-.27-11.25C148.9,360.87,149.21,359.6,149.49,358.08Z"/><path class="cls-21" d="M121.74,395.67c-2.52,4.36-3.85,7.16-3.25,11.89-1.88-4.18-.6-9.05,2-13.09Z"/><path class="cls-21" d="M141.87,365.32c2.57,2.54,3.3,8.07,1.49,11.06C146,374.29,146.56,368.77,141.87,365.32Z"/><path class="cls-21" d="M136.66,352.85l-.12.29c-.16.38-.35.8-.55,1.23l.76,4.62-1.42,1.42a4.76,4.76,0,0,0-1.45,3.43l4-3Z"/><path class="cls-22" d="M95.21,373.07c4.86,1.07,6.28,1.57,9,4.14s14.51,15.25,14.51,15.25-3.89.75-7.32,6.05-3.18,9.65-3.18,9.65l-11.66-10S87,381,95.21,373.07Z"/><path class="cls-23" d="M95.21,373.07c4.86,1.07,6.28,1.57,9,4.14s14.51,15.25,14.51,15.25-3.89.75-7.32,6.05-3.18,9.65-3.18,9.65l-11.66-10S87,381,95.21,373.07Z"/><g id="Mobile"><path class="cls-22" d="M149.06,334.74l-13.12,7.58a1.15,1.15,0,0,0-.61,1.11l4.33,30.19a1.6,1.6,0,0,0,.88,1.13,1.9,1.9,0,0,0,1.51-.11l13.08-7.55a1.37,1.37,0,0,0,.64-1.24l-4.31-30.09a1.63,1.63,0,0,0-.88-1.13A1.93,1.93,0,0,0,149.06,334.74Z"/><g class="cls-24"><path d="M149.06,334.74l-13.12,7.58a1.15,1.15,0,0,0-.61,1.11l4.33,30.19a1.6,1.6,0,0,0,.88,1.13,1.9,1.9,0,0,0,1.51-.11l13.08-7.55a1.37,1.37,0,0,0,.64-1.24l-4.31-30.09a1.63,1.63,0,0,0-.88-1.13A1.93,1.93,0,0,0,149.06,334.74Z"/></g><path class="cls-25" d="M141.87,374.72a1.91,1.91,0,0,1-1.33,0,1.6,1.6,0,0,1-.88-1.13l-4.33-30.19a1,1,0,0,1,.12-.6l1.4.58a1.17,1.17,0,0,0-.26.83l4.28,29.9A.69.69,0,0,0,141.87,374.72Z"/><g class="cls-7"><path d="M141.87,374.72a1.91,1.91,0,0,1-1.33,0,1.6,1.6,0,0,1-.88-1.13l-4.33-30.19a1,1,0,0,1,.12-.6l1.4.58a1.17,1.17,0,0,0-.26.83l4.28,29.9A.69.69,0,0,0,141.87,374.72Z"/></g><path class="cls-22" d="M137.15,343.14a1.22,1.22,0,0,0-.56,1.1l4.28,29.9a.72.72,0,0,0,1.18.5l13.08-7.55a1.37,1.37,0,0,0,.64-1.24l-4.31-30.09c-.06-.45-.46-.61-.87-.37Z"/><g class="cls-9"><path d="M137.15,343.14a1.22,1.22,0,0,0-.56,1.1l4.28,29.9a.72.72,0,0,0,1.18.5l13.08-7.55a1.37,1.37,0,0,0,.64-1.24l-4.31-30.09c-.06-.45-.46-.61-.87-.37Z"/></g><path class="cls-19" d="M138,344.92a1.28,1.28,0,0,0-.61,1.18l3.84,26.84a.51.51,0,0,0,.83.35l12.3-7.1a1.28,1.28,0,0,0,.61-1.18l-3.85-26.84a.5.5,0,0,0-.82-.35Z"/><path class="cls-3" d="M150.23,345.93l-3.35,1.85c-.49.27-.92.22-1-.11s.3-.81.79-1.08l3.35-1.84c.49-.27.92-.22,1,.11S150.72,345.67,150.23,345.93Z"/><path class="cls-3" d="M150.61,348.2l-3.36,1.85c-.48.27-.91.22-1-.11s.31-.81.79-1.08l3.36-1.84c.48-.27.91-.22,1,.11S151.09,347.94,150.61,348.2Z"/><path class="cls-3" d="M151.31,353.22,148,355.07c-.48.26-.91.21-1-.11s.31-.81.79-1.08l3.35-1.84c.49-.27.92-.22,1,.11S151.8,353,151.31,353.22Z"/><path class="cls-3" d="M151.69,355.49l-3.35,1.85c-.49.26-.92.21-1-.11s.3-.81.79-1.08l3.35-1.84c.49-.27.92-.22,1,.11S152.18,355.23,151.69,355.49Z"/><path class="cls-3" d="M152.4,360.51,149,362.36c-.48.26-.91.21-1-.11s.31-.81.79-1.08l3.36-1.84c.48-.27.91-.22,1,.11S152.88,360.24,152.4,360.51Z"/><path class="cls-3" d="M152.77,362.78l-3.35,1.85c-.48.26-.91.21-1-.11s.31-.81.79-1.08l3.35-1.84c.49-.27.92-.22,1,.11S153.26,362.51,152.77,362.78Z"/><path class="cls-3" d="M139.9,349.49l4.68-2.7a.31.31,0,0,1,.5.24l.59,4.55a.79.79,0,0,1-.37.74L140.68,355a.31.31,0,0,1-.5-.24l-.65-4.51A.82.82,0,0,1,139.9,349.49Z"/><path class="cls-3" d="M140.91,356.64l4.69-2.71a.31.31,0,0,1,.5.25l.59,4.55a.82.82,0,0,1-.37.74l-4.62,2.67a.31.31,0,0,1-.5-.24l-.65-4.52A.79.79,0,0,1,140.91,356.64Z"/><path class="cls-3" d="M141.93,363.78l4.69-2.7a.3.3,0,0,1,.49.25l.59,4.54a.82.82,0,0,1-.36.75l-4.62,2.67a.32.32,0,0,1-.51-.25l-.64-4.51A.81.81,0,0,1,141.93,363.78Z"/><path class="cls-18" d="M138.17,346.49l0-.17s0-.07,0-.08h0s0,0,0,0l0,.16s0,.08,0,.09h0S138.17,346.52,138.17,346.49Z"/><path class="cls-18" d="M138.32,346.4l0-.29s0-.08,0-.09h0s0,0,0,0l0,.29s0,.08,0,.09h0S138.33,346.43,138.32,346.4Z"/><path class="cls-18" d="M138.48,346.31l-.06-.41s0-.08,0-.09h0s0,0,0,0l.06.41s0,.08,0,.09h0S138.49,346.34,138.48,346.31Z"/><path class="cls-18" d="M138.64,346.22l-.1-.71s0-.08,0-.09h0s0,0,0,0l.11.71a.12.12,0,0,1,0,.09h0S138.64,346.25,138.64,346.22Z"/><path class="cls-18" d="M139.07,346v-.13l-.18.11s0,0,0,0v-.08l.13-.48v0h0s0,0,0,0l0,.36,0,0h0v.09l0,0V346l0,0Zm0-.22,0-.26-.09.33Z"/><path class="cls-18" d="M139.27,345.83a.34.34,0,0,1-.09-.21.6.6,0,0,1,0-.27.28.28,0,0,1,.14-.16.09.09,0,0,1,.07,0s0,0,.06,0h0v.06h0a.1.1,0,0,0-.09,0,.18.18,0,0,0-.1.11.64.64,0,0,0,0,.2.44.44,0,0,0,.06.16.09.09,0,0,0,.11,0l0,0,0,0,0-.17-.07,0h0a0,0,0,0,1,0,0v0s0,0,0,0l.12-.06h0v0l0,.24s0,0,0,0v0a.27.27,0,0,1-.13.13C139.36,345.87,139.31,345.87,139.27,345.83Z"/><path class="cls-18" d="M150.41,338.79s0,0-.08,0l-.53.3a.23.23,0,0,0-.06.2l.06.37a.16.16,0,0,0,0,.11l0,0a0,0,0,0,0,0,0l.53-.31c.05,0,.07-.11.06-.2l0-.36A.33.33,0,0,0,150.41,338.79Zm-.55.92a.08.08,0,0,1,0,0l-.05-.36a.18.18,0,0,1,0-.16l.53-.3h0a.43.43,0,0,1,0,.05l.06.37a.15.15,0,0,1-.05.15l-.53.31Z"/><path class="cls-18" d="M150.12,339l.07.44-.29.16h0l0-.33c0-.05,0-.1,0-.11Z"/><path class="cls-18" d="M150.49,338.9s0,0,0,.11v.07a.24.24,0,0,1,0,.16l0,0-.05-.34Z"/><path class="cls-18" d="M140.27,345.2a.2.2,0,0,1-.08.2c-.06,0-.11,0-.12-.08a.21.21,0,0,1,.08-.21S140.26,345.12,140.27,345.2Z"/><path class="cls-18" d="M140.11,344.88a.52.52,0,0,0-.21.34.06.06,0,0,0,0,.06h0s0,0,0,0a.37.37,0,0,1,.15-.24.14.14,0,0,1,.19.05s0,0,.06,0h0a.11.11,0,0,0,0-.08A.19.19,0,0,0,140.11,344.88Z"/><path class="cls-18" d="M140.08,344.64a.79.79,0,0,0-.32.5.06.06,0,0,0,0,.07h0s0,0,.05,0a.62.62,0,0,1,.27-.4.24.24,0,0,1,.33.06s0,0,.06,0h0a.11.11,0,0,0,0-.08A.3.3,0,0,0,140.08,344.64Z"/><path class="cls-18" d="M144.18,343v0h0l0,0h0v0l-.07-.49-.09.17h0l0,0s0,0,0,0v0l.11-.23h0l0,0h0v0Z"/><path class="cls-18" d="M144.27,342.54h0s0,0,0,0v.08h0l0,0h0v-.06s0,0,0,0h0Zm0,.32h0v.06s0,0,0,0v0l0,0h0v-.1Z"/><path class="cls-18" d="M144.65,342.79h0s0,0,0,0v-.12l-.2.11h0v-.07l.14-.49v0l0,0h0l.06.38.05,0h0v.06h0l-.05,0v.13s0,0,0,0h0Zm-.06-.22,0-.26-.1.34Z"/><path class="cls-18" d="M144.84,342.51l0,0s0,0,0,0h0l.05,0,0,0,0,0s0,0,0,0v-.06s0,0,0,0l0,0h0l0,0-.05,0h0v-.07h0L145,342l-.19.1h0v-.06h0l.25-.14h0V342l-.09.24.06,0h0l0,0a.14.14,0,0,1,0,.07.14.14,0,0,1,0,.09.19.19,0,0,1,0,.08l-.05.07-.06.05-.07,0h-.06a.08.08,0,0,1,0,0s0,0,0,0a0,0,0,0,1,0,0h.05Z"/><path class="cls-13" d="M143.09,340.7l2.18-1.26c.13-.07.25,0,.27.1a.4.4,0,0,1-.2.37l-2.18,1.26c-.13.08-.25,0-.27-.1A.41.41,0,0,1,143.09,340.7Z"/><path class="cls-13" d="M146.83,338.54c.13-.07.24,0,.26.11a.39.39,0,0,1-.19.36c-.12.07-.24,0-.25-.11A.38.38,0,0,1,146.83,338.54Z"/><path class="cls-13" d="M147.72,338a.15.15,0,0,1,.25.11.38.38,0,0,1-.18.36c-.13.07-.24,0-.26-.11A.39.39,0,0,1,147.72,338Z"/><path class="cls-13" d="M140.65,342.11a.15.15,0,0,1,.25.11.37.37,0,0,1-.19.36.15.15,0,0,1-.25-.11A.37.37,0,0,1,140.65,342.11Z"/><path class="cls-13" d="M141.53,341.6a.16.16,0,0,1,.26.11.41.41,0,0,1-.19.36.16.16,0,0,1-.26-.11A.41.41,0,0,1,141.53,341.6Z"/></g><path class="cls-20" d="M133.19,369.14c0-4.42.69-6.77,2.87-8.58,2.86-2.38,3.84-6.75,4.91-6.51,1.3.29,2.43,3.07.72,6.64-1.93,4-2.92,6.76-2.61,8.88C139.44,372.08,133.19,369.14,133.19,369.14Z"/><path class="cls-13" d="M104.56,421.84a37.39,37.39,0,0,1-51.95-1.26V409.67l.31-3.9h0l2.47-31.33A112.15,112.15,0,0,1,73,370.91a52.35,52.35,0,0,1,15.07.72c9.56,1.59,13.74,1.31,14.94,17.94C103.48,396.6,104.15,409.81,104.56,421.84Z"/><g id="Head-3" data-name="Head"><path d="M69.39,356.94l-.29-5s3.19-4.42,3.53-8c.42-4.64-.57-6.53-.57-6.53-1.61-1.23-5.24-4.25-7.32-4.43-3-.25-4.73,4.11-5.12,5.69a24,24,0,0,0,2.53,16.07c1.37,2.61,4.57,5.41,5.82,9.2A17,17,0,0,0,69.39,356.94Z"/><path d="M64.8,332.61C63,339.83,77.92,355,85.35,355s12.49-9.89,12.42-17.32S94.11,325,83.33,324.07C75.92,323.44,66.45,325.91,64.8,332.61Z"/><path class="cls-20" d="M63.21,359a4,4,0,0,0,4.55-.79l.57,15.39a11.83,11.83,0,0,0,5.42,5.17c3.7,1.6,8.39,2.34,11.47,1.16s4.72-3.59.25-7.37L85.3,368a27.68,27.68,0,0,0,5.23-.07c3.3-.54,5.36-3.17,6.33-6.76,1.55-5.76,1.11-14.4-1.18-25.55-3.72-2.85-15.88-3.21-23.62,1.77.42,6.57-.58,8.84-.81,9.83s-1.49,3.61-2.33,3.74c-1.59.25-1.84-1.46-2.86-2.52a4.33,4.33,0,0,0-6.52,1.85C57.9,353.83,60.93,358.1,63.21,359Z"/><path class="cls-21" d="M85.3,368c-5.27-.49-11.83-2.89-13.53-5.3a17.89,17.89,0,0,1-2.33-4.36s.22,4.15,1.52,6.26,6.18,5.64,14.44,6.14Z"/><path class="cls-13" d="M82.15,348.36a1.48,1.48,0,1,1-1.49-1.52A1.51,1.51,0,0,1,82.15,348.36Z"/><path class="cls-13" d="M81.87,342.28l-3.31,1.44a1.89,1.89,0,0,1,1-2.44A1.76,1.76,0,0,1,81.87,342.28Z"/><path class="cls-13" d="M95,343.43l-3.54-.88a1.75,1.75,0,0,1,2.15-1.36A1.92,1.92,0,0,1,95,343.43Z"/><path class="cls-13" d="M95.17,348.08a1.48,1.48,0,1,1-1.5-1.53A1.51,1.51,0,0,1,95.17,348.08Z"/><path class="cls-18" d="M74.75,343.53l-11.39,4.06a3.72,3.72,0,0,1,3.28,1.51L74.71,346Z"/><path class="cls-18" d="M101,343l-.74-.08a21.35,21.35,0,0,0-7.45.38c-2.38.78-3.24,1.61-4.55,1.65s-2.29-.79-4.81-1.48a24.68,24.68,0,0,0-8-.1l-.8.11a1.37,1.37,0,0,0-.92,1.37,3.08,3.08,0,0,0,.74,1.55,1.52,1.52,0,0,1,.25.62,27.9,27.9,0,0,0,.89,4.3,5.74,5.74,0,0,0,1,1.54,4.32,4.32,0,0,0,.52.44,2.23,2.23,0,0,0,.3.2,4.22,4.22,0,0,0,.88.42l.15,0,.23.07a2,2,0,0,0,.26.06,5.86,5.86,0,0,0,.78.11l.34,0h.42a5.63,5.63,0,0,0,5.5-3.31c.84-1.65.68-4,2.18-4h.14l.14,0c1.1.25.93,2.37,1.61,3.88a6.28,6.28,0,0,0,1,1.66l.25.25.14.12.14.11.12.1.15.1.1.06.08.05a5,5,0,0,0,1.29.51l.13,0a6.88,6.88,0,0,0,1.58.14,4.8,4.8,0,0,0,4.67-3.08,27.92,27.92,0,0,0,1-4.34,1.33,1.33,0,0,1,.29-.57,3.18,3.18,0,0,0,.72-1.61C101.82,343.66,101.38,343,101,343Zm-15.79,6.4A4.93,4.93,0,0,1,84,351.69a4.62,4.62,0,0,1-3.58,1.37,3.8,3.8,0,0,1-3.39-1.6l-.11-.16a.65.65,0,0,1-.09-.16c0-.05-.06-.11-.09-.15l-.06-.14-.06-.11,0-.09a.58.58,0,0,1-.06-.17c-.07-.16-.12-.32-.17-.47h0c0-.1-.06-.2-.08-.29s-.07-.32-.1-.46,0-.07,0-.08,0-.06,0-.09c-.23-1.14-.49-3.38.09-3.91s2.06-1.06,4.49-.87l.25,0a10.45,10.45,0,0,1,1.12.18l.42.1a9.8,9.8,0,0,1,1.08.34l.33.14.35.16.07,0,.14.07a2.09,2.09,0,0,1,.71.59C85.65,346.63,85.48,348.12,85.18,349.4Zm14.2-.75c-.21.89-.64,2.83-2.37,3.7a4.12,4.12,0,0,1-1.81.44,3.8,3.8,0,0,1-3.6-1.65v0l-.07-.09-.07-.13,0-.06c0-.07-.06-.12-.08-.18a1.47,1.47,0,0,1-.1-.22.36.36,0,0,1,0-.09l0-.06,0-.09a.19.19,0,0,1,0-.07,7.56,7.56,0,0,1-.22-.84c-.22-1.27-.33-2.75.15-3.46s2.27-1.52,4-1.76a9.25,9.25,0,0,1,1.11-.11h1l.3,0,.56.1.13,0h0l.09,0,.14,0a.47.47,0,0,0,.16,0,2.26,2.26,0,0,1,.26.11l.05,0a2.07,2.07,0,0,1,.59.38C100,345.24,99.64,347.5,99.38,348.65Z"/><path class="cls-21" d="M93.69,354.17l-5.34,1.37-.87-8.36a1.08,1.08,0,0,1,.7-.24h.14l.14,0a.69.69,0,0,1,.3.14C88.84,347.15,93.69,354.17,93.69,354.17Z"/><path class="cls-21" d="M82.56,357.64,88.74,359a3.1,3.1,0,0,1-3.69,2.53A3.31,3.31,0,0,1,82.56,357.64Z"/><path class="cls-26" d="M83.31,358.65a3.29,3.29,0,0,0-.77,0,3.26,3.26,0,0,0,2.51,2.84,2.93,2.93,0,0,0,1,0A2.91,2.91,0,0,0,83.31,358.65Z"/></g><path class="cls-20" d="M63.36,434.07c2.41,1.37,6,.84,9.72,1.79s6.16,2.7,8.72,3.3c.48,1-1.17,2.47-2.68,2.52-2.33.08-5.15-.83-5,.17.16,1.49,3.72,3.08,4.81,3.56,3.34,1.47,7.67,1.93,10.25,4.74a1.57,1.57,0,0,1,.51,1,1.27,1.27,0,0,1-1.12,1.07,7.09,7.09,0,0,1-1.66,0,1.89,1.89,0,0,0-1.53.52c-.33.39-.37,1-.71,1.34a1.9,1.9,0,0,1-.86.46,6,6,0,0,1-1.79.22,10.45,10.45,0,0,0-1.48,0,12.54,12.54,0,0,0-3,.49c-3.44,1.46-7.41-.2-10.53-1.69-6.65-3.2-8.82-6-12-8.81-4.26-3.78-12.56-11.32-18.88-17.85-6.86-7.08-7.78-8.56-4.32-17.7,3.62-9.55,4.28-11.32,7.85-18.22,4.68-9,6.14-14,15.74-16,2.94,2.8,4.85,10.55,1,25.3L49.45,415S61,432.69,63.36,434.07Z"/><path class="cls-22" d="M57.41,400.1,50.1,413.84c-3.58,0-13.94-4.22-16.51-10,3.84-9.53,5-12,8-18.23,4.16-8.65,7.55-10.33,16.33-11.89C62.57,382.67,58.54,397.14,57.41,400.1Z"/><path class="cls-27" d="M57.41,400.1,50.1,413.84c-3.58,0-13.94-4.22-16.51-10,3.84-9.53,5-12,8-18.23,4.16-8.65,7.55-10.33,16.33-11.89C62.57,382.67,58.54,397.14,57.41,400.1Z"/></g><circle class="cls-4" cx="190.84" cy="300.29" r="2.36"/><polygon class="cls-4" points="108.88 371.37 108.13 370.72 169.58 299.79 190.84 299.79 190.84 300.79 170.03 300.79 108.88 371.37"/></g></g><g id="Character_4" data-name="Character 4"><g id="Character-5" data-name="Character"><circle class="cls-11" cx="436.17" cy="240.21" r="38.4" transform="translate(129.19 632.27) rotate(-80.78)"/><path class="cls-4" d="M436.17,202.81a37.4,37.4,0,1,1-37.4,37.4,37.41,37.41,0,0,1,37.4-37.4m0-2a39.4,39.4,0,1,0,39.4,39.4,39.44,39.44,0,0,0-39.4-39.4Z"/><g id="Character-6" data-name="Character"><g id="Ponytail"><path class="cls-15" d="M458.29,246.88c-5.68,1.51-14.32,1.56-18.51-3.29-4-4.58-4.18-9.73-4.35-15.48a7.26,7.26,0,0,0-.32-2.19,32.17,32.17,0,0,1-1-5.87c-.24-2-.39-4-.46-6a83.42,83.42,0,0,1,.46-11.83,25,25,0,0,1,1.29-6.25,10.17,10.17,0,0,1,3.8-5,9,9,0,0,1,4.65-1.36,12.29,12.29,0,0,1,9.83,5.12c2.25,3.25,2.37,7.46,2.48,11.41a365.48,365.48,0,0,0,3.14,39,1.64,1.64,0,0,1-.22,1.36A1.51,1.51,0,0,1,458.29,246.88Z"/><path class="cls-25" d="M438.53,192.57c1-1,5.2-.4,7.68,2.16s3.29,6.4,1.8,7.59S436.89,195.43,438.53,192.57Z"/></g><path class="cls-28" d="M423.83,240.21l-2.27,23.88s-3.2,3.67-6.22,7.18a37.48,37.48,0,0,1-12.72-14.49c2.38-3.67,4.65-7,5.86-8.51C412.4,243.45,414,241.11,423.83,240.21Z"/><path class="cls-29" d="M423.83,240.21l-2.27,23.88s-3.2,3.67-6.22,7.18a37.48,37.48,0,0,1-12.72-14.49c2.38-3.67,4.65-7,5.86-8.51C412.4,243.45,414,241.11,423.83,240.21Z"/><path class="cls-22" d="M459.06,258.85c-.81,3.48-1.86,8.11-2.88,12.95a37,37,0,0,1-17.62,5.73c-.79.05-1.59.08-2.39.08a37.22,37.22,0,0,1-20.83-6.34,34.52,34.52,0,0,1-3.36-2.55,36.22,36.22,0,0,1-4.54-4.56c0-.12,0-.23,0-.35-.11-5.67,1.37-8.71,6.46-15.14a109.43,109.43,0,0,1,8.26-9.32c.09-.09.17-.19.26-.27a1.53,1.53,0,0,1,.18-.18,1.06,1.06,0,0,1,.15-.15,2.77,2.77,0,0,1,.25-.24,1,1,0,0,1,.15-.14s0,0,0,0h0L438.13,236l5.06,1.58,8.07,2.51C453.52,240.83,462,246,459.06,258.85Z"/><path class="cls-22" d="M423.17,238.33s0,0,0,0a1,1,0,0,0-.15.14,2.77,2.77,0,0,0-.25.24,1.06,1.06,0,0,0-.15.15,1.53,1.53,0,0,0-.18.18c-.09.08-.17.18-.26.27-3.36,3.76-6.94,11.51-8.3,16.39-1,2.23-1.55,7.05-1.86,13a36.22,36.22,0,0,1-4.54-4.56c-.37-.43-.72-.88-1.06-1.33a19.72,19.72,0,0,1,2-7.14C410.74,251.21,419.63,240.24,423.17,238.33Z"/><g class="cls-30"><path class="cls-22" d="M423.17,238.33s0,0,0,0a1,1,0,0,0-.15.14,2.77,2.77,0,0,0-.25.24,1.06,1.06,0,0,0-.15.15,1.53,1.53,0,0,0-.18.18c-.09.08-.17.18-.26.27-3.36,3.76-6.94,11.51-8.3,16.39-1,2.23-1.55,7.05-1.86,13a36.22,36.22,0,0,1-4.54-4.56c-.37-.43-.72-.88-1.06-1.33a19.72,19.72,0,0,1,2-7.14C410.74,251.21,419.63,240.24,423.17,238.33Z"/></g><path class="cls-22" d="M428.22,238.83c-2.48,1.71-13.61,9.35-15.82,24.24,0-6.57,2.47-14.6,4.82-18.42,2.85-4.64,6.65-9,10.91-10.24Z"/><path class="cls-22" d="M458.91,269.89c-.42.33-.84.64-1.27.94s-1,.66-1.46,1a37,37,0,0,1-17.62,5.73c0-1.46,0-2.94,0-4.43.07-10.11,4.48-31.19,4.6-34,0-.65,0-1.16,0-1.56a5.29,5.29,0,0,0,0-1.42l6.41,2.68s4.35,1.15,7.09,2c3.31,1,3,5,3.53,9.41C460.82,255.66,459.85,263,458.91,269.89Z"/><g class="cls-30"><path class="cls-22" d="M458.91,269.89c-.42.33-.84.64-1.27.94s-1,.66-1.46,1a37,37,0,0,1-17.62,5.73c0-1.46,0-2.94,0-4.43.07-10.11,4.48-31.19,4.6-34,0-.65,0-1.16,0-1.56a5.29,5.29,0,0,0,0-1.42l6.41,2.68s4.35,1.15,7.09,2c3.31,1,3,5,3.53,9.41C460.82,255.66,459.85,263,458.91,269.89Z"/></g><path class="cls-18" d="M417.44,197.86c-6.78.3-10.63,10.51-6,17.65,8.27,12.65,28.12,5.17,28.12,5.17l3.67,10.75s3.75-4.14,6.29-7.56c4.58-6.17,5.08-20.86-2.38-22.32C448.28,194,427.43,184.71,417.44,197.86Z"/><path class="cls-12" d="M417.35,203.09c-1.11,2.23-3.74,5.6-3.33,18,.32,9.66,3.68,11.78,6.86,13,1.55.6,3.93.59,7.26.23l.08,4.53s-6,5.55-4.11,16.7c18.72-7.8,18.94-17.31,18.94-17.31l.51-15.1c.6,1,3.57,2.32,5.9-.66,2.74-3.5,2.13-7.68-.31-9.22s-5.42-.08-6.53,2.77c-2.63,1.1-6.11-1.63-5.94-11.79-3.21-1.68-9.46.7-11.46.47C422.22,204.35,420.44,201.44,417.35,203.09Z"/><path class="cls-25" d="M448,221.13a1.39,1.39,0,1,1-1.57-1.17A1.38,1.38,0,0,1,448,221.13Z"/><path class="cls-14" d="M428.14,234.3c8.13-1.75,12.69-5.05,13.52-8.34,0,0-.52,4.3-2.8,6.2-3.2,2.66-10.68,4.39-10.68,4.39Z"/><path class="cls-16" d="M423.83,225.8l5.67-2.09a2.87,2.87,0,0,1-1.66,3.84A3.19,3.19,0,0,1,423.83,225.8Z"/><path class="cls-17" d="M426.54,227.73a3.06,3.06,0,0,0,1.3-.18,2.85,2.85,0,0,0,1.87-2.43A3.49,3.49,0,0,0,426.54,227.73Z"/><ellipse class="cls-13" cx="429.76" cy="216.06" rx="1.65" ry="1.63"/><path class="cls-13" d="M419.88,215.51a1.65,1.65,0,1,1-1.65-1.63A1.64,1.64,0,0,1,419.88,215.51Z"/><polygon class="cls-14" points="425.22 212.44 424.35 223.45 419.11 221.37 425.22 212.44"/><path class="cls-13" d="M415.6,212.81l3.78-1.3a1.92,1.92,0,0,0-2.48-1.26A2.09,2.09,0,0,0,415.6,212.81Z"/><path class="cls-13" d="M432.92,213.38l-3.72-1.6a2,2,0,0,1,2.6-1.09A2.13,2.13,0,0,1,432.92,213.38Z"/><path class="cls-13" d="M443.23,233.24c1.25-.06,1.57.7,3.22,2.58a23.86,23.86,0,0,0,3.11,3c-1.53,9.28-8.83,20.85-10.91,31.75-.09-8.82,2.27-20.95,4.5-34.43Z"/><path class="cls-31" d="M471,253.8a37.42,37.42,0,0,1-13.38,17c-1.65-3-2.94-5.2-2.94-5.2s-5.55-15.5,1.95-24.82c6.29,1.49,9.58,3.34,11.56,7.33C469.08,249.9,470,251.77,471,253.8Z"/><path class="cls-28" d="M471,253.8a37.42,37.42,0,0,1-13.38,17c-1.65-3-2.94-5.2-2.94-5.2s-5.55-15.5,1.95-24.82c6.29,1.49,9.58,3.34,11.56,7.33C469.08,249.9,470,251.77,471,253.8Z"/></g><path class="cls-32" d="M286.3,250.47a2.36,2.36,0,1,0,2.36-2.36A2.36,2.36,0,0,0,286.3,250.47Z"/><polygon class="cls-32" points="311.71 250.97 288.66 250.97 288.66 249.97 311.37 249.97 324.34 239.71 398.77 239.71 398.77 240.71 324.69 240.71 311.71 250.97"/></g></g><g id="Character_3" data-name="Character 3"><g id="Character-7" data-name="Character"><circle class="cls-11" cx="39.4" cy="210.83" r="38.4"/><path class="cls-4" d="M39.4,173.43A37.4,37.4,0,1,1,2,210.83a37.4,37.4,0,0,1,37.4-37.4m0-2a39.4,39.4,0,1,0,39.4,39.4,39.45,39.45,0,0,0-39.4-39.4Z"/><g id="Character-8" data-name="Character"><g id="Top"><path class="cls-13" d="M73.58,226a37.34,37.34,0,0,1-11.2,14.3q-.8.63-1.62,1.2c-.59-.74-.92-1.17-.92-1.17l-4.55-29.58c4.65,1,6.91,1.49,9.89,4.33C67,216.83,70.2,221.17,73.58,226Z"/><g id="Top-2" data-name="Top"><path class="cls-15" d="M62.38,240.33q-.8.63-1.62,1.2a37.4,37.4,0,0,1-44.22-1.1c-.4-.31-.79-.62-1.18-1A36.54,36.54,0,0,1,10.87,235a87,87,0,0,1,.72-10,79.21,79.21,0,0,0,.82-9.47c0-.53,0-.78,0-.78l18.47-7,15.06,1.08,9.36,1.92c3.17,2.71,5.42,7.76,6.37,16.79C62,230.81,62.22,235.34,62.38,240.33Z"/><g id="Head-4" data-name="Head"><path class="cls-15" d="M25,167.7A6.23,6.23,0,0,0,20.34,172c-1.08,2.91,0,8.22,1.31,14.62s2.23,9.13,3.09,10.92a4.86,4.86,0,0,0,2.73,2.34l.07-7.53-.09-5.25s3.52-4.47,4-8.23c.64-4.83-.31-6.84-.31-6.84Z"/><path class="cls-15" d="M25,167.7c.89-4.2,6.89-9.22,15.34-8.38S53,162.65,55.76,167.7s.62,8.67.62,8.67l-25.46-1Z"/><path class="cls-16" d="M21,194.24c2.73,1.88,5.31-.88,5.31-.88l.59,15.54s-.36,3,4.31,5.78c6.63,4,10.41,2.88,13.17,7,3.12-5.71,4.28-9.77-.72-13.53v-3.54a28.9,28.9,0,0,0,5.46.15c3.47-.42,5.73-3.08,6.9-6.78,1.86-5.95,1.9-16.45-.85-27.22-4.45-3.62-15.73-3.53-24,1.34.16,6.88-1.85,9.87-1.93,12.36a6.43,6.43,0,0,1-1.55,1.88c-1.3,1.06-2.24-1.81-3.26-3s-4.44-2.77-6.28.82S18.65,192.62,21,194.24Z"/><path class="cls-13" d="M39.64,179.46,36,181.53a2.17,2.17,0,0,1,.8-2.91A2,2,0,0,1,39.64,179.46Z"/><path class="cls-13" d="M54.38,179.7l-4-1.31A2,2,0,0,1,53,177,2.2,2.2,0,0,1,54.38,179.7Z"/><path class="cls-13" d="M37.71,183.66A1.69,1.69,0,1,0,39.4,182,1.69,1.69,0,0,0,37.71,183.66Z"/><circle class="cls-13" cx="51.89" cy="182.88" r="1.69"/><path class="cls-33" d="M44.38,179.33l1.16,10.28,6.07-1.36A20.18,20.18,0,0,0,44.38,179.33Z"/><path class="cls-15" d="M29.16,183.52c.47,7.38,2.88,8.35,5.51,8.73,3.48.52,6.71-1.15,11.52-1.54,3.75-.3,5.13,1.18,7.29,2,1.59.63,2.86.6,3.24-1.2a47.48,47.48,0,0,0,.35-10,70,70,0,0,1,.3,13.4c-.45,3.48-1.32,6.75-3.22,8.4-2.62,2.29-8.21,2.72-15.18,1.3s-9.58-3.69-10.45-6.13c-2.84-7.91-1.84-11.7-2.77-13.19S29.16,183.52,29.16,183.52Z"/><path class="cls-33" d="M42.1,193.29l4.62,1.19a2.34,2.34,0,0,1-2.86,1.79A2.5,2.5,0,0,1,42.1,193.29Z"/><path class="cls-17" d="M42.64,194.07a2.26,2.26,0,0,0-.58,0,2.46,2.46,0,0,0,1.8,2.21,2.21,2.21,0,0,0,.76.06A2.18,2.18,0,0,0,42.64,194.07Z"/><path class="cls-13" d="M44.38,221.64c-1.41-1.7-6.06-4.16-8.19-1.86s-1.49,4.14-3,4c-2-.18-6.11-3.87-8.17-6.11a28.56,28.56,0,0,1-3.87-6.23,12.16,12.16,0,0,0,3-2.82c1.12-1.6,1.33-3.17,2.57-3.27l.13,3.55s.81,1.77,4.33,4.15S41.81,216.13,44.38,221.64Z"/><path class="cls-13" d="M44.38,221.64c1.16-1.07,2.74-3.75,4.65-3.22s2.91,3.92,3,2.9a29.75,29.75,0,0,0-3.22-9.11c-1.45-2.14-3.83-5.84-5.1-6.05V209s3.09,4.82,2.84,6.55S44.61,220,44.38,221.64Z"/></g></g></g><g id="Arm"><path class="cls-16" d="M15.36,239.48A36.54,36.54,0,0,1,10.87,235,37,37,0,0,1,3,219.58c2-1.5,4.88-2.74,9.28-4.18l.09.13A28.39,28.39,0,0,1,16.2,227.2,37.87,37.87,0,0,1,15.36,239.48Z"/><path class="cls-13" d="M16.93,238.51l-.39,1.92A36.41,36.41,0,0,1,10.87,235,37.06,37.06,0,0,1,3,219.26c3-2.23,7-3.6,9.44-4.51C19.26,221.71,16.93,238.51,16.93,238.51Z"/></g></g><path class="cls-26" d="M129.36,221.08a2.36,2.36,0,1,1-2.36-2.35A2.36,2.36,0,0,1,129.36,221.08Z"/><polygon class="cls-4" points="127 221.58 103.94 221.58 90.97 211.33 76.8 211.33 76.8 210.33 91.32 210.33 104.29 220.58 127 220.58 127 221.58"/></g></g><g id="Character_2" data-name="Character 2"><g id="Character-9" data-name="Character"><circle class="cls-11" cx="349.13" cy="67.14" r="38.4"/><path class="cls-4" d="M349.13,29.74a37.4,37.4,0,1,1-37.4,37.4,37.4,37.4,0,0,1,37.4-37.4m0-2a39.4,39.4,0,1,0,39.4,39.4,39.44,39.44,0,0,0-39.4-39.4Z"/><g id="Character-10" data-name="Character"><path class="cls-26" d="M320.17,67.73c-3.39,3-17.23,14.24-17.23,14.24-1.89-3.84-4.1-8.54-5.95-12.6a50.84,50.84,0,0,1-3.75-14,34.6,34.6,0,0,0-1.19-5.33,15.35,15.35,0,0,1-.48-5.53c.13-.91-2.18-1.24-3.33,1.48-.86,2-.74,4.39-.93,5.72-1-.57-2.47-1.68-4.67-2.86s-5.57-3.76-7.3-1.34c-.68.95.05,2,0,2.27s-.41.49-.62.72a3.35,3.35,0,0,0-.63,3.36,2.26,2.26,0,0,1,.21.79c0,.54-.51,1-.69,1.46a3.3,3.3,0,0,0-.06,1.79c.18.87.57,1.69.75,2.56a9.86,9.86,0,0,0,.41,1.62,4.53,4.53,0,0,0,2.18,2.7c1.43.83,2.9,1.72,5,2.89,1.63.92,2.4,3.56,3.4,7.89,2.75,10.13,2.95,16.67,5.44,22.18,3.22,7.13,8.08,6.13,17.08,1.08,11.07-6.21,19.06-10.49,19.06-10.49l8.93-28.61C330.07,60.16,323.56,64.73,320.17,67.73Z"/><path class="cls-15" d="M340.13,58.26c-7.64.31-9.23,1.7-13.68,4.55S309.1,77,309.1,77a30.77,30.77,0,0,0,9.74,16.37L333.33,85Z"/><path class="cls-17" d="M284.5,51.93c1.68.72,2,1.91,1.74,4.39-.17,1.47,0,4.23,1.49,5.48a3.78,3.78,0,0,1-2-1.11c-.68-.85-.88-1-1.35-.56a2.68,2.68,0,0,1-1.17.53,1.92,1.92,0,0,1,0,2.3c-.9,1.19-4.79.24-7.48-1.51,0,0,4.89,2.53,6.1,1.18s-1.47-4.07-3.24-4.74c0,0,4.77,2.14,5.6.75s-1.34-3.31-3.89-4.23c0,0,4,1.67,4.79.49C286,53.46,284.93,52.47,284.5,51.93Z"/><path class="cls-17" d="M302.94,82c2.77,4.77,3.06,11.38,2.52,13.66,0,0,2.8-6.1-.57-15.24Z"/><path class="cls-22" d="M376.4,92.72A37.39,37.39,0,0,1,326.62,97c.2-8.77-.05-15.8.29-19.29,1.42-14.78,5.49-18.78,13-19.49l12.53-.92c3.65.92,17,5.36,20.52,7.52,2.49,1.51,3.33,7.14,3.49,16.3C376.57,85.08,376.55,88.68,376.4,92.72Z"/><path class="cls-18" d="M329.44,23.48a4.41,4.41,0,0,0,1.25,1,2.14,2.14,0,0,0-2,1.6,4.14,4.14,0,0,0,.23,2.66,7.3,7.3,0,0,0,2.11,3,16.5,16.5,0,0,0,3.45,1.76,16.43,16.43,0,0,1,2.19,1.84c1.05.81,2.09,1.63,3.16,2.4a65.72,65.72,0,0,0,6.66,4.3,46,46,0,0,0,6.87,3.19,19.94,19.94,0,0,0,6.39,1.21l.56,6.39s.88-1.68,1.89-3.69c.87-1.73,4.48-10.52,4.48-10.53,1.42-3.46,2.81-7.07,2.56-10.92-.2-3.1-1.15-5.41-3.52-6.71a7.56,7.56,0,0,0-2.84-7.66A13.94,13.94,0,0,0,356.7,11a25.1,25.1,0,0,0-7.54.31c-7,1.17-14.18,3.19-20.89-.22a5.87,5.87,0,0,0,.5,3.16,15.05,15.05,0,0,0,4,5.74l-3.91-.48a.62.62,0,0,0-.45.06.55.55,0,0,0-.16.42A4.85,4.85,0,0,0,329.44,23.48Z"/><path class="cls-26" d="M354,21.22c0,2.28,2.22,6.28,5.46,9.07a22.47,22.47,0,0,0-.13,7.67,4.23,4.23,0,0,0,.58,1.54,1.87,1.87,0,0,0,1.36.84c.74,0,1-.4,1.27-1a18.35,18.35,0,0,1,1.11-2.16,4.26,4.26,0,0,1,.65-.84c1.12-1,4.45-2.34,6,1.2s-1.29,8.56-4,9.32c-4.62,1.32-5.65-1.82-5.65-1.82l.18,15.31c-1.27,3.9-8.44,7.72-14.23,7s-4-4.23-1.64-6.61l-.34-5.32a22.61,22.61,0,0,1-6.17-.19c-2.41-.45-4.86-2.42-5.88-6.07-1.95-7-1.23-17.15-.37-21.53s3.17-7.23,4.47-7.88c0,.93.74,3.2,5.42,3.81C347.09,24.25,350.45,22.72,354,21.22Z"/><path class="cls-17" d="M344.66,55.45a34.62,34.62,0,0,0,10.16-2.35c3.51-1.77,3.84-5.54,4.23-6.64,0,0,0,5.76-3,8-3.68,2.74-11.28,3.2-11.28,3.2Z"/><path class="cls-18" d="M349,29.8l3.74,1.82a2.18,2.18,0,0,0-1-2.85A2,2,0,0,0,349,29.8Z"/><path class="cls-16" d="M348.73,44.82l-6,2.15a3.11,3.11,0,0,0,4,2A3.32,3.32,0,0,0,348.73,44.82Z"/><path class="cls-17" d="M345.15,49.12a2.83,2.83,0,0,1,3-2.65,2.86,2.86,0,0,1,.72.13,3.25,3.25,0,0,1-2.06,2.4A3,3,0,0,1,345.15,49.12Z"/><path class="cls-18" d="M334,31.07l3.58-1.94a2,2,0,0,0-2.71-.81A2.08,2.08,0,0,0,334,31.07Z"/><polygon class="cls-17" points="343.38 43.12 337.81 41.24 344.21 31.03 343.38 43.12"/><path class="cls-13" d="M338,34.74a1.64,1.64,0,1,1-1.62-1.65A1.63,1.63,0,0,1,338,34.74Z"/><path class="cls-13" d="M351.1,34.85a1.64,1.64,0,1,1-1.63-1.65A1.63,1.63,0,0,1,351.1,34.85Z"/><path class="cls-15" d="M384.11,80.38a37.59,37.59,0,0,1-17.3,19.72c-.84-3.81-2.39-10.93-2.87-13.59-.68-3.71-1.81-18.72,9.07-21.68A31.84,31.84,0,0,1,379.7,69c1,1,2.64,1.8,3.74,7.46C383.63,77.42,383.86,78.8,384.11,80.38Z"/></g><polygon class="cls-4" points="325.16 146.96 324.55 146.17 348.63 127.7 348.63 104.54 349.63 104.54 349.63 128.2 349.43 128.35 325.16 146.96"/><path class="cls-4" d="M322.5,146.56a2.36,2.36,0,1,0,2.35-2.35A2.35,2.35,0,0,0,322.5,146.56Z"/></g></g><g id="Character_1" data-name="Character 1"><g id="Character-11" data-name="Character"><circle class="cls-11" cx="102.67" cy="67.14" r="38.4" transform="translate(-17.4 92.26) rotate(-45)"/><path class="cls-4" d="M102.67,29.74a37.4,37.4,0,1,1-37.4,37.4,37.39,37.39,0,0,1,37.4-37.4m0-2a39.4,39.4,0,1,0,39.4,39.4,39.44,39.44,0,0,0-39.4-39.4Z"/><g id="Character-12" data-name="Character"><path class="cls-15" d="M127.19,70.94c-1.55,4.26-4.7,7.92-8.26,11a29.73,29.73,0,0,1-7.79,5,35.4,35.4,0,0,1-7.46,1.91c-10.13,1.69-26,1.56-31.45-9.15A9.51,9.51,0,0,1,72,71.21c.81-1.61,2.2-3,2.34-4.82.19-2.41-1.9-4.35-2.62-6.65C70.55,56.09,73.33,53,76,50.94c3.31-2.53,3.76-3.92,3.9-6.89,0-1.37-.39-2.71-.47-4a16.77,16.77,0,0,1,1.91-8.32,11,11,0,0,1,6.15-5c.07,0,28.34-.71,28.34-.71.35,1.62.78,3.24,1,4.85.35,2.56,1.92,4.16,3.49,6.2,1.69,2.26,3.45,4.68,3.39,7.51s-2,5.87-1.34,8.68c.54,2,2.3,3.41,3.53,5C128.52,61.8,128.73,66.68,127.19,70.94Z"/><path class="cls-26" d="M115.25,64.38c11.58-1.09,13,1,22.94,7.66,6.73,4.51,15.54,10.44,15.54,10.44s5.94-19.18,5.76-22c-.22-3.36-1.92-5.18-2.8-8.67s-.93-5.92-1.93-7.33,1.93-2,3.3-.31,1.76,4.34,2.54,3.79.85-6.2-.23-10.17,1.08-5.23,2-4a11.88,11.88,0,0,1,1.35,2.07,7.67,7.67,0,0,1,1.07-.31,1.71,1.71,0,0,1,1.56.24c.45.33.79.78,1.27,1.07a8.59,8.59,0,0,0,1.59.57c3.85,1.44,4.17,7.79,4.35,11.14.38,7-2.47,10.81-3.16,13.47-.25,1-.28,4.16-.77,10.83-.56,7.61-.81,15.39-3.53,23.24-2.27,6.57-6.86,6.3-11.72,4.32-6.93-2.82-27.18-13.91-27.18-13.91C119,78.17,115.25,64.38,115.25,64.38Z"/><path class="cls-17" d="M162.67,49.58s4.58,2.28,3.86,9c0,0,2-3.63.2-6.38S162.67,49.58,162.67,49.58Z"/><path class="cls-17" d="M153.73,82.48s-1.84,4-.59,11a14.9,14.9,0,0,1-1-12.06Z"/><g id="Chest"><path class="cls-25" d="M132.81,89.27a37.31,37.31,0,0,1-54.08,6.59,103,103,0,0,1-.14-12.3A32.3,32.3,0,0,1,79.35,77a17.76,17.76,0,0,1,2.1-5c1.46-2.36,4.09-3.47,6.91-4.16C90.62,67.3,93,67,95,66.54l2.86-.67,12.6-1.08L115,64.4c5.73,2.73,13.16,10.86,16.61,18.76A13,13,0,0,1,132.81,89.27Z"/><path class="cls-6" d="M132.81,89.27a37.31,37.31,0,0,1-54.08,6.59,103,103,0,0,1-.14-12.3A32.3,32.3,0,0,1,79.35,77a17.76,17.76,0,0,1,2.1-5c1.46-2.36,4.09-3.47,6.91-4.16C90.62,67.3,93,67,95,66.54l2.86-.67,12.6-1.08L115,64.4c5.73,2.73,13.16,10.86,16.61,18.76A13,13,0,0,1,132.81,89.27Z"/></g><path class="cls-26" d="M92.72,83.31c-.5,4-2.25,8-3.85,11.69l-2.48,5.82a37.85,37.85,0,0,1-14.3-12.15c1-3,2.5-6.89,4.07-10.32,3.08-6.73,4.38-9.29,12.2-10.49C92.72,70.53,93.46,77.28,92.72,83.31Z"/><g id="Head-5" data-name="Head"><path class="cls-15" d="M94.69,58.58c.25-1.1-2-5.06-3.26-6.66-3.83-4.76-5.77-6-7.27-12.15-1-4.09-.29-8.65,3.33-13.07,2.77-6.79,7.26-9.95,15.27-11.14a35.68,35.68,0,0,1,10.53.39c1.49.34,2.94.8,4.46,1a8.68,8.68,0,0,0,4.6-.38c.77-.32,1.69-.8,2.35-.36a1.47,1.47,0,0,1,.52,1.2,5.48,5.48,0,0,1-2.53,4.73,4.31,4.31,0,0,1,3,8,3.63,3.63,0,0,1,.56,4.43,8.66,8.66,0,0,1-3.67,2.85c-4.37,2.27-8.07,5.6-11.93,8.62l-11,8.62L96,57.54C95.87,57.65,94.68,58.39,94.69,58.58Z"/><path class="cls-26" d="M116.91,23.43c4.25,1.76,8,4.44,7.8,19-.17,11.27-3.67,14.37-5.58,15.34a17.57,17.57,0,0,1-8.66,1.2l0,6.86s10.92,8.94,7.27,15.82C99.76,77.5,95,67.07,95,67.07l-.67-16.43a4.34,4.34,0,0,1-4.81.43,6.16,6.16,0,0,1-2-9.54c2.26-2.44,5.83-2,7.24.5,0,0-1.77-10.62,4.55-15.45C106.77,20.92,111.91,21.36,116.91,23.43Z"/><path class="cls-17" d="M93,42.75a.88.88,0,0,0,0-.17,2.85,2.85,0,0,0-1-1.46,3,3,0,0,0-1.19-.72,3.12,3.12,0,0,0-3.16,1.16,7,7,0,0,0-1.44,2.86,3.6,3.6,0,0,1,.11-2,5.74,5.74,0,0,1,2.43-3.11A4.41,4.41,0,0,1,92.6,39a3.72,3.72,0,0,1,2.2,2.85c.23,1.58-.65,2.52-1.69,3.54a1.41,1.41,0,0,1-.46.35.51.51,0,0,1-.54-.08.57.57,0,0,1,0-.63c.17-.35.41-.69.6-1A2,2,0,0,0,93,42.75Z"/><path class="cls-19" d="M93.46,47.28a1.33,1.33,0,0,1-.12.73c-.37.65-1.4.63-2,.44a4.05,4.05,0,0,1-2-1.33c-.9-1.12-1.41-3.09,0-4a2,2,0,0,1,2.81.41,3.63,3.63,0,0,1,.35,1.93,1.41,1.41,0,0,0,.27.82,2.8,2.8,0,0,1,.61.76A1.23,1.23,0,0,1,93.46,47.28Z"/><path class="cls-16" d="M109.63,49.57a2.67,2.67,0,0,0,2.44,3.13,3.17,3.17,0,0,0,3.45-2.5Z"/><path class="cls-17" d="M113,52.65a2.31,2.31,0,0,0-2.55-2.21,3,3,0,0,0-.78.18,2.71,2.71,0,0,0,2.42,2.08A2.76,2.76,0,0,0,113,52.65Z"/><path class="cls-13" d="M109.43,40a1.68,1.68,0,0,1-1.59,1.61,1.46,1.46,0,0,1-1.61-1.42,1.67,1.67,0,0,1,1.6-1.6A1.45,1.45,0,0,1,109.43,40Z"/><path class="cls-13" d="M121.28,38.55a1.67,1.67,0,0,1-1.59,1.61,1.46,1.46,0,0,1-1.61-1.41,1.68,1.68,0,0,1,1.6-1.61A1.45,1.45,0,0,1,121.28,38.55Z"/><polygon class="cls-17" points="113.69 37.51 114.64 46.24 120.18 44.67 113.69 37.51"/><path class="cls-17" d="M110.47,59c-3.31-.34-10.67-1.57-13.84-6.75a10.37,10.37,0,0,0,2.7,5.24c3.19,3,11.15,4.15,11.15,4.15Z"/><path class="cls-13" d="M107.75,34.85l-3.48,2.78a2.15,2.15,0,0,1,.4-3A2.21,2.21,0,0,1,107.75,34.85Z"/><path class="cls-13" d="M122.14,34.82,118,33.51a2.29,2.29,0,0,1,2.81-1.39A2.07,2.07,0,0,1,122.14,34.82Z"/><path class="cls-15" d="M112.93,27.91c-1.86.42-4.08-2.37-7.79-.9-4,1.59-2.71,5.76-5.57,8.27-2.17,1.9,0,6.67-2.32,7.8-1,.5-2.44-1-2.44-1s-2-2.72-1.57-9.3,9.65-11.49,16.29-12.16,13.56,3.06,13.58,9c0,0-1.66-3.53-4.79-3.79S114.61,27.53,112.93,27.91Z"/></g></g><polygon class="cls-4" points="205.79 207.82 102.17 128.2 102.17 104.54 103.17 104.54 103.17 127.7 206.4 207.02 205.79 207.82"/><path class="cls-4" d="M208.46,207.42a2.36,2.36,0,1,1-2.36-2.36A2.36,2.36,0,0,1,208.46,207.42Z"/></g></g></g></svg>